<svg aria-hidden="true" style="position: absolute; width: 0; height: 0; overflow: hidden;" version="1.1" xmlns="http://www.w3.org/2000/svg" xmlns:xlink="http://www.w3.org/1999/xlink">
<defs>
<symbol id="logo" viewBox="0 0 133 32">
<path fill="#fff" style="fill: var(--color1, #fff)" d="M37.47 4.093l-5.431 27.552h-7.203l2.834-14.524-9.171 11.808h-3.424l-4.999-11.808-2.913 14.524h-7.163l5.51-27.552h6.337l6.455 15.941 12.516-15.941h6.652z"></path>
<path fill="#fff" style="fill: var(--color1, #fff)" d="M63.883 10.312l-4.251 21.333h-7.085l0.433-2.204c-0.918 0.866-1.955 1.509-3.109 1.929-1.128 0.42-2.296 0.63-3.503 0.63-2.335 0-4.198-0.63-5.589-1.889-1.364-1.26-2.047-3.057-2.047-5.392 0-0.866 0.092-1.745 0.276-2.637l2.361-11.769h7.478l-2.204 11.060c-0.105 0.499-0.157 0.984-0.157 1.456 0 1.863 0.958 2.795 2.873 2.795 1.286 0 2.348-0.394 3.188-1.181 0.84-0.813 1.417-2.007 1.732-3.582l2.125-10.549h7.478z"></path>
<path fill="#fff" style="fill: var(--color1, #fff)" d="M72.793 32c-1.837 0-3.608-0.197-5.313-0.59-1.679-0.394-2.991-0.892-3.936-1.496l2.716-5.235c0.971 0.604 2.125 1.089 3.464 1.456 1.338 0.341 2.65 0.512 3.936 0.512 2.283 0 3.424-0.512 3.424-1.535 0-0.42-0.276-0.722-0.827-0.905-0.525-0.21-1.377-0.407-2.558-0.59-1.574-0.289-2.873-0.59-3.897-0.905-0.997-0.341-1.876-0.905-2.637-1.692s-1.141-1.889-1.141-3.306c0-2.467 1.050-4.369 3.149-5.707 2.125-1.364 4.867-2.047 8.226-2.047 1.522 0 2.991 0.157 4.408 0.472 1.417 0.289 2.65 0.695 3.7 1.22l-2.637 5.235c-1.784-1.076-3.897-1.614-6.337-1.614-1.155 0-2.020 0.157-2.598 0.472-0.551 0.289-0.827 0.669-0.827 1.142 0 0.42 0.262 0.735 0.787 0.945 0.551 0.184 1.443 0.394 2.676 0.63 1.522 0.262 2.781 0.564 3.778 0.905 1.023 0.341 1.902 0.905 2.637 1.692 0.761 0.787 1.141 1.863 1.141 3.228 0 2.467-1.063 4.369-3.188 5.707s-4.841 2.007-8.147 2.007z"></path>
<path fill="#fff" style="fill: var(--color1, #fff)" d="M90.224 10.312h7.439l-4.251 21.333h-7.439l4.251-21.333zM94.987 7.951c-1.286 0-2.322-0.354-3.109-1.063s-1.181-1.588-1.181-2.637c0-1.233 0.433-2.244 1.299-3.031 0.892-0.813 2.060-1.22 3.503-1.22 1.312 0 2.362 0.341 3.149 1.023 0.787 0.656 1.181 1.509 1.181 2.558 0 1.286-0.446 2.335-1.338 3.149s-2.060 1.22-3.503 1.22z"></path>
<path fill="#fff" style="fill: var(--color1, #fff)" d="M115.631 19.759l7.164 11.887h-8.737l-4.369-7.282-3.070 2.677-0.905 4.605h-7.478l5.825-29.205h7.478l-3.030 15.154 8.62-7.282h9.445l-10.942 9.447z"></path>
<path fill="#fff" style="fill: var(--color1, #fff)" d="M128.571 32c-1.233 0-2.256-0.38-3.070-1.141-0.787-0.787-1.181-1.771-1.181-2.952 0-1.417 0.46-2.558 1.378-3.424 0.944-0.892 2.085-1.338 3.424-1.338 1.26 0 2.27 0.38 3.030 1.141 0.787 0.735 1.181 1.719 1.181 2.952 0 1.391-0.473 2.532-1.417 3.424-0.918 0.892-2.034 1.338-3.346 1.338z"></path>
</symbol>
<symbol id="linkedin" viewBox="0 0 32 32">
<path fill="#fff" style="fill: var(--color1, #fff)" d="M24.447 24.452h-3.553v-5.569c0-1.328-0.027-3.037-1.853-3.037-1.852 0-2.135 1.445-2.135 2.94v5.667h-3.555v-11.452h3.413v1.56h0.047c0.477-0.899 1.637-1.849 3.371-1.849 3.6 0 4.267 2.371 4.267 5.455v6.287h-0.001zM9.337 11.433c-0.271 0-0.54-0.053-0.791-0.157s-0.478-0.256-0.67-0.448c-0.192-0.192-0.344-0.42-0.447-0.67s-0.157-0.519-0.156-0.791c0-0.408 0.122-0.807 0.349-1.146s0.55-0.604 0.927-0.76c0.377-0.156 0.792-0.197 1.193-0.117s0.768 0.277 1.056 0.566c0.288 0.289 0.485 0.657 0.564 1.057s0.038 0.815-0.118 1.192c-0.156 0.377-0.421 0.699-0.761 0.926s-0.739 0.347-1.147 0.347h0.001zM11.119 24.452h-3.564v-11.452h3.565v11.452h-0.001zM26.227 4h-20.455c-0.981 0-1.772 0.773-1.772 1.729v20.541c0 0.956 0.792 1.729 1.771 1.729h20.451c0.979 0 1.779-0.773 1.779-1.729v-20.541c0-0.956-0.8-1.729-1.779-1.729h0.005z"></path>
</symbol>
<symbol id="twitter" viewBox="0 0 32 32">
<path fill="#fff" style="fill: var(--color1, #fff)" d="M29.549 7.542c-1.018 0.45-2.097 0.746-3.203 0.877 1.165-0.697 2.037-1.793 2.453-3.085-1.093 0.651-2.292 1.107-3.541 1.353-0.839-0.898-1.952-1.493-3.164-1.694s-2.457 0.005-3.541 0.585c-1.084 0.58-1.945 1.502-2.451 2.622s-0.627 2.376-0.345 3.572c-2.217-0.111-4.386-0.687-6.366-1.691s-3.727-2.413-5.127-4.136c-0.496 0.851-0.756 1.819-0.755 2.804 0 1.933 0.984 3.641 2.48 4.641-0.885-0.028-1.751-0.267-2.525-0.697v0.069c0 1.288 0.446 2.535 1.261 3.532s1.95 1.681 3.212 1.936c-0.822 0.223-1.684 0.256-2.52 0.096 0.356 1.108 1.049 2.078 1.983 2.772s2.062 1.080 3.226 1.101c-1.157 0.908-2.481 1.58-3.897 1.976s-2.897 0.509-4.357 0.333c2.549 1.639 5.516 2.509 8.547 2.507 10.257 0 15.867-8.497 15.867-15.867 0-0.24-0.007-0.483-0.017-0.72 1.092-0.789 2.034-1.767 2.783-2.887l-0.001-0.001z"></path>
</symbol>
<symbol id="facebook" viewBox="0 0 32 32">
<path fill="#fff" style="fill: var(--color1, #fff)" d="M18.667 18h3.333l1.333-5.333h-4.667v-2.667c0-1.373 0-2.667 2.667-2.667h2v-4.48c-0.435-0.057-2.076-0.187-3.809-0.187-3.62 0-6.191 2.209-6.191 6.267v3.733h-4v5.333h4v11.333h5.333v-11.333z"></path>
</symbol>
<symbol id="instagram" viewBox="0 0 32 32">
<path fill="#fff" style="fill: var(--color1, #fff)" d="M16 2.667c3.623 0 4.075 0.013 5.496 0.080 1.42 0.067 2.387 0.289 3.237 0.62 0.88 0.339 1.621 0.797 2.363 1.537 0.678 0.667 1.203 1.473 1.537 2.363 0.329 0.849 0.553 1.817 0.62 3.237 0.063 1.421 0.080 1.873 0.080 5.496s-0.013 4.075-0.080 5.496c-0.067 1.42-0.291 2.387-0.62 3.237-0.334 0.89-0.859 1.697-1.537 2.363-0.667 0.678-1.473 1.202-2.363 1.537-0.849 0.329-1.817 0.553-3.237 0.62-1.421 0.063-1.873 0.080-5.496 0.080s-4.075-0.013-5.496-0.080c-1.42-0.067-2.387-0.291-3.237-0.62-0.89-0.334-1.697-0.859-2.363-1.537-0.678-0.666-1.203-1.473-1.537-2.363-0.331-0.849-0.553-1.817-0.62-3.237-0.063-1.421-0.080-1.873-0.080-5.496s0.013-4.075 0.080-5.496c0.067-1.421 0.289-2.387 0.62-3.237 0.334-0.89 0.858-1.697 1.537-2.363 0.666-0.678 1.473-1.203 2.363-1.537 0.851-0.331 1.816-0.553 3.237-0.62 1.421-0.063 1.873-0.080 5.496-0.080zM16 9.333c-1.768 0-3.464 0.702-4.714 1.953s-1.953 2.946-1.953 4.714c0 1.768 0.702 3.464 1.953 4.714s2.946 1.953 4.714 1.953c1.768 0 3.464-0.702 4.714-1.953s1.953-2.946 1.953-4.714c0-1.768-0.702-3.464-1.953-4.714s-2.946-1.953-4.714-1.953zM24.667 9c0-0.442-0.176-0.866-0.488-1.178s-0.737-0.488-1.179-0.488-0.866 0.176-1.179 0.488c-0.313 0.313-0.488 0.736-0.488 1.178s0.176 0.866 0.488 1.178c0.313 0.313 0.737 0.488 1.179 0.488s0.866-0.176 1.179-0.488c0.313-0.313 0.488-0.736 0.488-1.178zM16 12c1.061 0 2.078 0.421 2.828 1.172s1.172 1.768 1.172 2.828-0.421 2.078-1.172 2.828c-0.75 0.75-1.768 1.172-2.828 1.172s-2.078-0.421-2.828-1.172c-0.75-0.75-1.172-1.768-1.172-2.828s0.421-2.078 1.172-2.828c0.75-0.75 1.768-1.172 2.828-1.172z"></path>
</symbol>
<symbol id="trumpet" viewBox="0 0 32 32">
<path fill="#84c4ff" style="fill: var(--color2, #84c4ff)" d="M31.591 9.839l-9.429-9.43c-0.385-0.385-0.959-0.511-1.47-0.322s-0.865 0.658-0.907 1.201l-0.746 9.701-4.807 4.807-1.371-1.371c-0.545-0.545-1.428-0.545-1.973 0s-0.545 1.428 0 1.972l1.371 1.371-2.742 2.742-1.371-1.371c-0.545-0.545-1.428-0.545-1.973 0s-0.545 1.428 0 1.972l1.371 1.371-4.971 4.971-0.192-0.192c-0.545-0.545-1.428-0.545-1.972 0s-0.545 1.428 0 1.972l2.357 2.357c0.272 0.272 0.629 0.408 0.986 0.408s0.714-0.136 0.986-0.408c0.545-0.545 0.545-1.428 0-1.973l-0.192-0.192 2.907-2.907c0.234 0.617 0.597 1.184 1.078 1.664 0.893 0.893 2.081 1.385 3.344 1.385s2.45-0.492 3.343-1.385l4.715-4.715c1.844-1.844 1.844-4.844-0-6.687-0.481-0.481-1.047-0.844-1.664-1.078l2.743-2.743 9.701-0.746c0.543-0.042 1.012-0.396 1.201-0.907s0.063-1.085-0.322-1.47zM17.96 21.497l-4.715 4.715c-0.366 0.366-0.853 0.568-1.371 0.568s-1.005-0.202-1.371-0.568-0.568-0.853-0.568-1.371c0-0.518 0.202-1.005 0.568-1.371l4.717-4.716c0.366-0.365 0.852-0.566 1.369-0.566s1.005 0.202 1.371 0.568c0.756 0.756 0.756 1.986-0 2.742z"></path>
</symbol>
<symbol id="saxophone" viewBox="0 0 32 32">
<path fill="#fff" style="fill: var(--color1, #fff)" d="M30.125 11.313h-9.437c-1.036 0-1.875 0.839-1.875 1.875s0.839 1.875 1.875 1.875h9.437c1.036 0 1.875-0.84 1.875-1.875s-0.839-1.875-1.875-1.875z"></path>
<path fill="#fff" style="fill: var(--color1, #fff)" d="M30.125 16.938h-9.437v2.736c0 1.593-1.294 2.889-2.885 2.889-1.37 0-2.56-0.974-2.825-2.296l-3.020-16.199c-0.555-2.775-3.331-4.653-6.264-3.901-2.211 0.569-3.755 2.652-3.755 5.068v4.203h-1c-0.518 0-0.938 0.419-0.938 0.938s0.419 0.938 0.938 0.938h3.812c0.518 0 0.938-0.42 0.938-0.938v-3.812c0-0.518 0.42-0.938 0.938-0.938s0.938 0.42 0.938 0.938v6.625h-0.938c-0.518 0-0.938 0.419-0.938 0.938s0.419 0.938 0.938 0.938h0.938v1.875h-0.938c-0.518 0-0.938 0.419-0.938 0.938s0.419 0.938 0.938 0.938h0.938v1.875h-0.938c-0.518 0-0.938 0.419-0.938 0.938s0.419 0.938 0.938 0.938h1.106c0.894 5.318 5.508 9.437 11.081 9.437h0.016l0.329-0.006c6.013-0.179 10.967-5.497 10.967-11.778l-0-3.279z"></path>
</symbol>
<symbol id="guitar" viewBox="0 0 32 32">
<path fill="#c00096" style="fill: var(--color3, #c00096)" d="M19.107 10.225l1.31-1.31 2.705 2.705-1.31 1.31-2.705-2.705z"></path>
<path fill="#c00096" style="fill: var(--color3, #c00096)" d="M16.488 12.845l1.31-1.31 2.705 2.705-1.31 1.31-2.705-2.705z"></path>
<path fill="#c00096" style="fill: var(--color3, #c00096)" d="M23.57 4.152c-0.15 0.071-0.216 0.246-0.152 0.399l0.012 0.029 0.314 1.014c-0.017 0.015-0.034 0.030-0.050 0.046l-1.965 1.965 2.706 2.705 1.965-1.965c0.022-0.022 0.043-0.045 0.063-0.068l1.016 0.315c0.145 0.045 0.305-0.025 0.37-0.162 1.275-2.679 3.86-3.921 3.973-3.974 0.076-0.035 0.135-0.1 0.162-0.179s0.021-0.167-0.017-0.241l-1.301-2.558c-0.015-0.029-0.034-0.055-0.057-0.078s-0.049-0.042-0.078-0.057l-2.544-1.296c-0.064-0.040-0.141-0.054-0.216-0.041-0.099 0.018-0.184 0.083-0.226 0.174-0.012 0.027-1.27 2.685-3.974 3.973z"></path>
<path fill="#c00096" style="fill: var(--color3, #c00096)" d="M16.704 24.19c-0.035-0.562 0.327-1.063 0.86-1.193 0.939-0.228 1.797-0.714 2.481-1.404 0.486-0.491 0.864-1.063 1.124-1.702 0.141-0.345 0.060-0.741-0.203-1.004-0.004-0.004-0.008-0.008-0.012-0.012-0.273-0.263-0.678-0.333-1.023-0.178-0.942 0.424-2.213 0.192-3.332-0.551l1.288-1.288-2.706-2.705-0.816 0.816c-0.18-0.897-0.019-1.739 0.526-2.284 0.157-0.157 0.341-0.285 0.548-0.382 0.358-0.168 0.57-0.545 0.528-0.938s-0.33-0.716-0.716-0.804c-1.767-0.401-3.584 0.115-4.861 1.383-0.691 0.686-1.177 1.547-1.404 2.49-0.128 0.532-0.63 0.894-1.193 0.861-2.141-0.128-4.232 0.662-5.738 2.168-2.74 2.74-2.74 7.199 0 9.94l2.543 2.543c2.74 2.74 7.199 2.74 9.94 0 1.511-1.511 2.3-3.608 2.167-5.755zM9.47 24.482l-1.952-1.952c-0.362-0.362-0.362-0.948 0-1.31s0.948-0.362 1.31 0l1.952 1.952c0.362 0.362 0.362 0.948 0 1.31s-0.948 0.362-1.31 0zM12.398 21.554l-1.952-1.952c-0.362-0.362-0.362-0.948 0-1.31s0.948-0.362 1.31 0l1.952 1.952c0.362 0.362 0.362 0.948 0 1.31s-0.948 0.362-1.31 0z"></path>
</symbol>
<symbol id="bagpipes" viewBox="0 0 32 32">
<path fill="#fc5252" style="fill: var(--color4, #fc5252)" d="M4.688 5.688h-3.75c-0.518 0-0.938 0.419-0.938 0.938s0.419 0.938 0.938 0.938h0.938v3.75h1.875v-3.75h0.938c0.518 0 0.938-0.419 0.938-0.938s-0.419-0.938-0.938-0.938z"></path>
<path fill="#fc5252" style="fill: var(--color4, #fc5252)" d="M29.188 11.312h-0.938v-3.923c1.089-0.388 1.875-1.419 1.875-2.64 0-1.551-1.262-2.813-2.812-2.813s-2.812 1.262-2.812 2.813c0 1.221 0.786 2.252 1.875 2.64v3.923h-0.938c-0.518 0-0.938 0.419-0.938 0.938s0.419 0.938 0.938 0.938h0.938v1.875h1.875v-1.875h0.938c0.518 0 0.937-0.419 0.937-0.938s-0.419-0.938-0.937-0.938z"></path>
<path fill="#fc5252" style="fill: var(--color4, #fc5252)" d="M30.125 16.938h-23.562c-1.034 0-1.875-0.841-1.875-1.875v-0.938c0-0.518-0.419-0.937-0.938-0.937h-1.875c-0.518 0-0.938 0.419-0.938 0.937v0.938c0 3.102 2.523 5.625 5.625 5.625h3.106c0.894 5.319 5.508 9.375 11.081 9.375 6.213 0 11.25-5.037 11.25-11.25 0-1.036-0.839-1.875-1.875-1.875z"></path>
<path fill="#fc5252" style="fill: var(--color4, #fc5252)" d="M21.688 11.312h-0.938v-3.923c1.089-0.388 1.875-1.419 1.875-2.64 0-1.551-1.262-2.813-2.812-2.813s-2.812 1.262-2.812 2.813c0 1.221 0.786 2.252 1.875 2.64v3.923h-0.938c-0.518 0-0.938 0.419-0.938 0.938s0.419 0.938 0.938 0.938h0.938v1.875h1.875v-1.875h0.938c0.518 0 0.937-0.419 0.937-0.938s-0.419-0.938-0.937-0.938z"></path>
<path fill="#fc5252" style="fill: var(--color4, #fc5252)" d="M14.188 11.312h-0.938v-3.923c1.089-0.388 1.875-1.419 1.875-2.64 0-1.551-1.262-2.813-2.812-2.813s-2.812 1.262-2.812 2.813c0 1.221 0.786 2.252 1.875 2.64v3.923h-0.938c-0.518 0-0.938 0.419-0.938 0.938s0.419 0.938 0.938 0.938h0.938v1.875h1.875v-1.875h0.938c0.518 0 0.937-0.419 0.937-0.938s-0.419-0.938-0.937-0.938z"></path>
</symbol>
<symbol id="mixer" viewBox="0 0 32 32">
<path fill="#db841d" style="fill: var(--color5, #db841d)" d="M29.188 5.221h-26.375c-1.551 0-2.813 1.262-2.813 2.813v15.932c0 1.551 1.262 2.812 2.813 2.812h26.375c1.551 0 2.812-1.262 2.812-2.812v-15.932c0-1.551-1.262-2.813-2.812-2.813zM10.774 23.157c-3.946 0-7.157-3.211-7.157-7.157s3.211-7.157 7.157-7.157c3.946 0 7.157 3.211 7.157 7.157s-3.211 7.157-7.157 7.157zM21.554 13.333v7.963c0 0.518-0.42 0.938-0.938 0.938s-0.938-0.42-0.938-0.938v-7.963c-0.337-0.142-0.573-0.476-0.573-0.864s0.236-0.722 0.573-0.864v-0.695c0-0.518 0.42-0.938 0.938-0.938s0.938 0.42 0.938 0.938v0.695c0.337 0.142 0.573 0.476 0.573 0.864s-0.236 0.722-0.573 0.864zM24.958 20.145v1.152c0 0.518-0.42 0.938-0.937 0.938s-0.938-0.42-0.938-0.938v-1.152c-0.337-0.142-0.573-0.475-0.573-0.864s0.236-0.722 0.573-0.864v-7.506c0-0.518 0.42-0.938 0.938-0.938s0.937 0.42 0.937 0.938v7.506c0.337 0.142 0.573 0.476 0.573 0.864s-0.236 0.722-0.573 0.864zM28.361 13.333v7.963c0 0.518-0.42 0.938-0.938 0.938s-0.938-0.42-0.938-0.938v-7.963c-0.337-0.142-0.573-0.476-0.573-0.864s0.236-0.722 0.573-0.864v-0.695c0-0.518 0.42-0.938 0.938-0.938s0.938 0.42 0.938 0.938v0.695c0.337 0.142 0.573 0.476 0.573 0.864s-0.236 0.722-0.573 0.864z"></path>
<path fill="#db841d" style="fill: var(--color5, #db841d)" d="M10.774 13.294c-1.492 0-2.706 1.214-2.706 2.706s1.214 2.706 2.706 2.706c1.492 0 2.706-1.214 2.706-2.706s-1.214-2.706-2.706-2.706zM10.774 16.831c-0.458 0-0.831-0.373-0.831-0.831s0.373-0.831 0.831-0.831c0.458 0 0.831 0.373 0.831 0.831s-0.373 0.831-0.831 0.831z"></path>
</symbol>
<symbol id="phone" viewBox="0 0 32 32">
<path fill="#ffa3a3" style="fill: var(--color6, #ffa3a3)" d="M28 21.893v4.715c0 0.338-0.128 0.663-0.358 0.91s-0.545 0.397-0.882 0.421c-0.583 0.040-1.059 0.061-1.427 0.061-11.783 0-21.333-9.551-21.333-21.333 0-0.368 0.020-0.844 0.061-1.427 0.024-0.337 0.174-0.652 0.421-0.882s0.572-0.358 0.91-0.358h4.715c0.165-0 0.325 0.061 0.448 0.172s0.2 0.263 0.216 0.428c0.031 0.307 0.059 0.551 0.085 0.736 0.265 1.849 0.808 3.648 1.611 5.335 0.127 0.267 0.044 0.585-0.196 0.756l-2.877 2.056c1.759 4.099 5.026 7.366 9.125 9.125l2.053-2.872c0.084-0.117 0.206-0.201 0.346-0.238s0.288-0.023 0.418 0.039c1.687 0.801 3.485 1.343 5.333 1.607 0.185 0.027 0.429 0.056 0.733 0.085 0.164 0.017 0.317 0.094 0.427 0.217s0.172 0.282 0.171 0.447h-0.001z"></path>
</symbol>
<symbol id="location" viewBox="0 0 32 32">
<path fill="#ffa3a3" style="fill: var(--color6, #ffa3a3)" d="M24.485 23.152l-8.485 8.485-8.485-8.485c-1.678-1.678-2.821-3.816-3.284-6.144s-0.225-4.741 0.683-6.933 2.446-4.067 4.42-5.385c1.973-1.319 4.293-2.022 6.667-2.022s4.693 0.704 6.667 2.022c1.973 1.319 3.511 3.193 4.42 5.385s1.146 4.605 0.683 6.933c-0.463 2.328-1.606 4.466-3.284 6.144zM16 17.333c0.707 0 1.385-0.281 1.886-0.781s0.781-1.178 0.781-1.886c0-0.707-0.281-1.386-0.781-1.886s-1.178-0.781-1.886-0.781c-0.707 0-1.385 0.281-1.886 0.781s-0.781 1.178-0.781 1.886c0 0.707 0.281 1.386 0.781 1.886s1.178 0.781 1.886 0.781z"></path>
</symbol>
<symbol id="email" viewBox="0 0 32 32">
<path fill="#ffa3a3" style="fill: var(--color6, #ffa3a3)" d="M4 4h24c0.354 0 0.693 0.14 0.943 0.391s0.391 0.589 0.391 0.943v21.333c0 0.354-0.141 0.693-0.391 0.943s-0.589 0.391-0.943 0.391h-24c-0.354 0-0.693-0.141-0.943-0.391s-0.391-0.589-0.391-0.943v-21.333c0-0.354 0.14-0.693 0.391-0.943s0.589-0.391 0.943-0.391zM16.080 15.577l-8.549-7.26-1.727 2.032 10.293 8.74 10.108-8.747-1.744-2.017-8.381 7.252z"></path>
</symbol>
<symbol id="arrow-down" viewBox="0 0 32 32">
<path fill="#fff" style="fill: var(--color1, #fff)" d="M31.055 6.622c1.26 1.363 1.26 3.573 0 4.937l-12.773 13.819c-1.26 1.363-3.303 1.363-4.563 0l-12.773-13.818c-0.629-0.681-0.945-1.577-0.945-2.468s0.316-1.787 0.945-2.468c1.26-1.363 3.303-1.363 4.563-0l7.265 7.859 3.227 3.582 3.227-3.582 7.265-7.86c1.26-1.363 3.303-1.363 4.563 0z"></path>
</symbol>
<symbol id="arrow-right" viewBox="0 0 32 32">
<path fill="#fff" style="fill: var(--color1, #fff)" d="M21.563 14.667l-7.152-7.152 1.885-1.885 10.371 10.371-10.371 10.371-1.885-1.885 7.152-7.152h-16.229v-2.667h16.229z"></path>
</symbol>
<symbol id="arrow-prev" viewBox="0 0 32 32">
<path d="M14.602 16.147l6.522 6.522-1.863 1.863-8.386-8.386 8.386-8.386 1.863 1.863-6.522 6.522z"></path>
</symbol>
<symbol id="arrow-next" viewBox="0 0 32 32">
<path d="M17.399 16.146l-6.522-6.522 1.863-1.863 8.386 8.385-8.386 8.386-1.863-1.863 6.522-6.522z"></path>
</symbol>
<symbol id="play-hero" viewBox="0 0 32 32">
<path fill="#fff" style="fill: var(--color1, #fff)" d="M16 29.333c-7.364 0-13.333-5.969-13.333-13.333s5.969-13.333 13.333-13.333c7.364 0 13.333 5.969 13.333 13.333s-5.969 13.333-13.333 13.333zM16 26.667c2.829 0 5.542-1.124 7.542-3.124s3.124-4.713 3.124-7.542c0-2.829-1.124-5.542-3.124-7.543s-4.713-3.124-7.542-3.124-5.542 1.124-7.542 3.124c-2 2-3.124 4.714-3.124 7.543s1.124 5.542 3.124 7.542c2 2 4.713 3.124 7.542 3.124zM14.163 11.22l6.505 4.336c0.073 0.049 0.133 0.115 0.175 0.192s0.063 0.164 0.063 0.252c0 0.088-0.022 0.174-0.063 0.252s-0.102 0.143-0.175 0.192l-6.507 4.336c-0.080 0.053-0.173 0.084-0.27 0.088s-0.192-0.017-0.277-0.062c-0.085-0.045-0.156-0.113-0.206-0.195s-0.076-0.177-0.076-0.273v-8.675c0-0.096 0.027-0.191 0.076-0.274s0.121-0.15 0.206-0.196c0.085-0.045 0.181-0.067 0.277-0.062s0.19 0.036 0.27 0.089z"></path>
</symbol>
<symbol id="instagram-bg" viewBox="0 0 32 32">
<path fill="#fc5252" opacity="0.1" style="fill: var(--color4, #fc5252)" d="M16 2.667c3.623 0 4.075 0.013 5.496 0.080 1.42 0.067 2.387 0.289 3.237 0.62 0.88 0.339 1.621 0.797 2.363 1.537 0.678 0.667 1.203 1.473 1.537 2.363 0.329 0.849 0.553 1.817 0.62 3.237 0.063 1.421 0.080 1.873 0.080 5.496s-0.013 4.075-0.080 5.496c-0.067 1.42-0.291 2.387-0.62 3.237-0.334 0.89-0.858 1.697-1.537 2.363-0.667 0.678-1.473 1.202-2.363 1.537-0.849 0.329-1.817 0.553-3.237 0.62-1.421 0.063-1.873 0.080-5.496 0.080s-4.075-0.013-5.496-0.080c-1.42-0.067-2.387-0.291-3.237-0.62-0.89-0.334-1.697-0.859-2.363-1.537-0.678-0.666-1.203-1.473-1.537-2.363-0.331-0.849-0.553-1.817-0.62-3.237-0.063-1.421-0.080-1.873-0.080-5.496s0.013-4.075 0.080-5.496c0.067-1.421 0.289-2.387 0.62-3.237 0.334-0.89 0.858-1.697 1.537-2.363 0.666-0.678 1.473-1.203 2.363-1.537 0.851-0.331 1.816-0.553 3.237-0.62 1.421-0.063 1.873-0.080 5.496-0.080zM16 9.333c-1.768 0-3.464 0.702-4.714 1.953s-1.953 2.946-1.953 4.714 0.702 3.464 1.953 4.714c1.25 1.25 2.946 1.953 4.714 1.953s3.464-0.702 4.714-1.953c1.25-1.25 1.953-2.946 1.953-4.714s-0.702-3.464-1.953-4.714c-1.25-1.25-2.946-1.953-4.714-1.953zM24.667 9c0-0.442-0.176-0.866-0.488-1.178s-0.736-0.488-1.178-0.488c-0.442 0-0.866 0.176-1.178 0.488s-0.488 0.736-0.488 1.178c0 0.442 0.176 0.866 0.488 1.178s0.737 0.488 1.178 0.488c0.442 0 0.866-0.176 1.178-0.488s0.488-0.737 0.488-1.178zM16 12c1.061 0 2.078 0.421 2.828 1.172s1.172 1.768 1.172 2.828c0 1.061-0.421 2.078-1.172 2.828s-1.767 1.172-2.828 1.172c-1.061 0-2.078-0.421-2.828-1.172s-1.172-1.768-1.172-2.828c0-1.061 0.421-2.078 1.172-2.828s1.768-1.172 2.828-1.172z"></path>
</symbol>
<symbol id="quotes-right" viewBox="0 0 32 32">
<path fill="#381ddb" style="fill: var(--color7, #381ddb)" d="M25.664 8.003c1.373 1.459 2.111 3.095 2.111 5.747 0 4.667-3.276 8.849-8.040 10.917l-1.191-1.837c4.447-2.405 5.316-5.527 5.663-7.495-0.716 0.371-1.653 0.5-2.572 0.415-2.405-0.223-4.301-2.197-4.301-4.652 0-1.238 0.492-2.425 1.367-3.3s2.062-1.367 3.3-1.367c1.431 0 2.799 0.653 3.664 1.572zM12.33 8.003c1.373 1.459 2.111 3.095 2.111 5.747 0 4.667-3.276 8.849-8.040 10.917l-1.191-1.837c4.447-2.405 5.316-5.527 5.663-7.495-0.716 0.371-1.653 0.5-2.572 0.415-2.405-0.223-4.301-2.197-4.301-4.652 0-1.238 0.492-2.425 1.367-3.3s2.062-1.367 3.3-1.367c1.431 0 2.799 0.653 3.664 1.572z"></path>
</symbol>
<symbol id="quotes-left" viewBox="0 0 32 32">
<path fill="#381ddb" style="fill: var(--color7, #381ddb)" d="M6.111 23.095c-1.373-1.459-2.111-3.095-2.111-5.747 0-4.667 3.276-8.849 8.040-10.917l1.191 1.837c-4.447 2.405-5.316 5.527-5.663 7.495 0.716-0.371 1.653-0.5 2.572-0.415 2.405 0.223 4.301 2.197 4.301 4.652 0 1.238-0.492 2.425-1.367 3.3s-2.062 1.367-3.3 1.367c-1.431 0-2.799-0.653-3.664-1.572zM19.444 23.095c-1.373-1.459-2.111-3.095-2.111-5.747 0-4.667 3.276-8.849 8.040-10.917l1.191 1.837c-4.447 2.405-5.316 5.527-5.663 7.495 0.716-0.371 1.653-0.5 2.572-0.415 2.405 0.223 4.301 2.197 4.301 4.652 0 1.238-0.492 2.425-1.367 3.3s-2.062 1.367-3.3 1.367c-1.431 0-2.799-0.653-3.664-1.572z"></path>
</symbol>
<symbol id="chat" viewBox="0 0 32 32">
<path d="M13.333 4h5.333c2.829 0 5.542 1.124 7.543 3.124s3.124 4.713 3.124 7.542c0 2.829-1.124 5.542-3.124 7.543s-4.714 3.124-7.543 3.124v4.667c-6.667-2.667-16-6.667-16-15.333 0-2.829 1.124-5.542 3.124-7.542s4.713-3.124 7.542-3.124zM16 22.667h2.667c1.051 0 2.091-0.207 3.061-0.609s1.853-0.991 2.595-1.734c0.743-0.743 1.332-1.625 1.734-2.595s0.609-2.011 0.609-3.061-0.207-2.091-0.609-3.061c-0.402-0.971-0.991-1.853-1.734-2.595s-1.625-1.332-2.595-1.734-2.011-0.609-3.061-0.609h-5.333c-2.122 0-4.157 0.843-5.657 2.343s-2.343 3.535-2.343 5.657c0 4.813 3.283 7.955 10.667 11.307v-3.307z"></path>
</symbol>
<symbol id="heart" viewBox="0 0 32 32">
<path d="M16.001 6.039c3.132-2.812 7.972-2.719 10.989 0.304 3.016 3.024 3.12 7.84 0.315 10.981l-11.307 11.323-11.304-11.323c-2.805-3.141-2.7-7.965 0.315-10.981 3.020-3.019 7.851-3.12 10.992-0.304zM25.103 8.227c-2-2.003-5.227-2.084-7.32-0.204l-1.78 1.597-1.781-1.596c-2.1-1.883-5.32-1.8-7.325 0.205-1.987 1.987-2.087 5.167-0.256 7.268l9.36 9.375 9.36-9.373c1.832-2.103 1.732-5.279-0.257-7.272z"></path>
</symbol>
<symbol id="clock" viewBox="0 0 32 32">
<path d="M16 29.333c-7.364 0-13.333-5.969-13.333-13.333s5.969-13.333 13.333-13.333c7.364 0 13.333 5.969 13.333 13.333s-5.969 13.333-13.333 13.333zM16 26.667c2.829 0 5.542-1.124 7.543-3.124s3.124-4.714 3.124-7.543c0-2.829-1.124-5.542-3.124-7.542s-4.714-3.124-7.543-3.124c-2.829 0-5.542 1.124-7.542 3.124s-3.124 4.713-3.124 7.542c0 2.829 1.124 5.542 3.124 7.543s4.713 3.124 7.542 3.124zM17.333 16h5.333v2.667h-8v-9.333h2.667v6.667z"></path>
</symbol>
<symbol id="camera" viewBox="0 0 32 32">
<path fill="#fc5252" style="fill: var(--color4, #fc5252)" d="M21.333 5.333c0.354 0 0.693 0.14 0.943 0.391s0.391 0.589 0.391 0.943v5.6l6.951-4.867c0.1-0.070 0.217-0.111 0.339-0.119s0.243 0.018 0.352 0.074 0.199 0.141 0.262 0.246c0.063 0.104 0.097 0.224 0.097 0.346v16.107c0 0.122-0.033 0.242-0.097 0.346s-0.154 0.189-0.262 0.246-0.23 0.082-0.352 0.074c-0.122-0.008-0.239-0.049-0.339-0.119l-6.951-4.867v5.6c0 0.354-0.141 0.693-0.391 0.943s-0.589 0.391-0.943 0.391h-18.667c-0.354 0-0.693-0.141-0.943-0.391s-0.391-0.589-0.391-0.943v-18.667c0-0.354 0.14-0.693 0.391-0.943s0.589-0.391 0.943-0.391h18.667zM20 8h-16v16h16v-16zM9.867 11.772c0.101-0 0.201 0.028 0.287 0.083l5.807 3.696c0.075 0.048 0.137 0.115 0.181 0.193s0.065 0.167 0.065 0.256-0.023 0.178-0.065 0.256c-0.043 0.079-0.105 0.145-0.181 0.193l-5.807 3.697c-0.081 0.052-0.174 0.080-0.27 0.083s-0.191-0.020-0.275-0.066-0.154-0.115-0.202-0.197c-0.048-0.083-0.074-0.177-0.073-0.273v-7.387c0-0.295 0.24-0.533 0.533-0.533v-0.001zM28 11.787l-5.333 3.733v0.957l5.333 3.733v-8.424z"></path>
</symbol>
<symbol id="play" viewBox="0 0 32 32">
<path d="M16 29.333c-7.364 0-13.333-5.969-13.333-13.333s5.969-13.333 13.333-13.333c7.364 0 13.333 5.969 13.333 13.333s-5.969 13.333-13.333 13.333zM16 26.667c2.829 0 5.542-1.124 7.543-3.124s3.124-4.713 3.124-7.542c0-2.829-1.124-5.542-3.124-7.543s-4.714-3.124-7.543-3.124c-2.829 0-5.542 1.124-7.542 3.124s-3.124 4.713-3.124 7.543c0 2.829 1.124 5.542 3.124 7.542s4.713 3.124 7.542 3.124zM14.163 11.22l6.505 4.336c0.073 0.049 0.133 0.115 0.175 0.192s0.063 0.164 0.063 0.252c0 0.088-0.022 0.174-0.063 0.252s-0.101 0.143-0.175 0.192l-6.507 4.336c-0.080 0.053-0.173 0.084-0.269 0.088s-0.192-0.017-0.277-0.062c-0.085-0.045-0.156-0.113-0.205-0.195s-0.076-0.177-0.076-0.273v-8.675c0-0.096 0.027-0.191 0.076-0.274s0.121-0.15 0.206-0.196c0.085-0.045 0.181-0.067 0.277-0.062s0.19 0.036 0.27 0.089z"></path>
</symbol>
<symbol id="shape-1" viewBox="0 0 32 32">
<path fill="#ffa3a3" style="fill: var(--color6, #ffa3a3)" d="M10.667 26.667c0-11.782 9.551-21.333 21.333-21.333v21.333h-21.333z"></path>
<path fill="#84c4ff" style="fill: var(--color2, #84c4ff)" d="M0 5.333c11.782 0 21.333 9.551 21.333 21.333h-21.333v-21.333z"></path>
<path fill="#84c4ff" style="fill: var(--color2, #84c4ff)" d="M10.667 26.667h10.667c0-5.41-2.014-10.35-5.333-14.111-3.319 3.761-5.333 8.701-5.333 14.111z"></path>
</symbol>
<symbol id="shape-2" viewBox="0 0 32 32">
<path fill="#ffa3a3" style="fill: var(--color6, #ffa3a3)" d="M2.621 32c0-15.921 12.907-28.828 28.828-28.828v28.828h-28.828z"></path>
<path fill="#84c4ff" style="fill: var(--color2, #84c4ff)" d="M17.103 8.276c0 4.571-3.705 8.276-8.276 8.276s-8.276-3.705-8.276-8.276c0-4.571 3.705-8.276 8.276-8.276s8.276 3.705 8.276 8.276z"></path>
<path fill="#84c4ff" style="fill: var(--color2, #84c4ff)" d="M8.828 16.552c4.571 0 8.276-3.705 8.276-8.276 0-0.419-0.031-0.831-0.091-1.234-3.963 2.297-7.328 5.511-9.805 9.351 0.524 0.104 1.066 0.159 1.621 0.159z"></path>
</symbol>
<symbol id="confetti-1" viewBox="0 0 32 32">
<path fill="#ffa3a3" style="fill: var(--color6, #ffa3a3)" d="M10.496 25.672l-5.603-20.785 21.033 5.537-15.43 15.248z"></path>
<path fill="none" stroke="#222" stroke-width="1.0240" stroke-miterlimit="4" stroke-linecap="butt" stroke-linejoin="miter" style="stroke: var(--color8, #222)" d="M23.293 16.993l-14.166 13.999-5.144-19.083 19.31 5.083z"></path>
</symbol>
<symbol id="confetti-2" viewBox="0 0 32 32">
<path fill="#84c4ff" style="fill: var(--color2, #84c4ff)" d="M6.667 6.816l25.333-0.039-12.7 22.222-12.634-22.184z"></path>
<path fill="none" stroke="#222" stroke-width="1.7778" stroke-miterlimit="4" stroke-linecap="butt" stroke-linejoin="miter" style="stroke: var(--color8, #222)" d="M12.635 23.428l-11.107-19.503 22.272-0.034-11.165 19.537z"></path>
</symbol>
<symbol id="confetti-3" viewBox="0 0 32 32">
<path fill="none" stroke="#fc5252" stroke-width="2.3273" stroke-miterlimit="4" stroke-linecap="butt" stroke-linejoin="miter" style="stroke: var(--color4, #fc5252)" d="M4.367 16.078l23.854-13.724 0.042 27.52-23.896-13.796z"></path>
</symbol>
<symbol id="shape-3" viewBox="0 0 32 32">
<path fill="#84c4ff" style="fill: var(--color2, #84c4ff)" d="M31.862 27.807l-36.19-9.712 3.725-13.903 32.464 23.615z"></path>
</symbol>
<symbol id="confetti-4" viewBox="0 0 32 32">
<path fill="#84c4ff" style="fill: var(--color2, #84c4ff)" d="M27.833 18.167c0 7.64-6.193 13.833-13.833 13.833s-13.833-6.193-13.833-13.833c0-7.64 6.193-13.833 13.833-13.833s13.833 6.193 13.833 13.833z"></path>
<path fill="none" stroke="#222" stroke-width="2.6667" stroke-miterlimit="4" stroke-linecap="butt" stroke-linejoin="miter" style="stroke: var(--color8, #222)" d="M30.5 13.833c0 6.904-5.596 12.5-12.5 12.5s-12.5-5.596-12.5-12.5c0-6.904 5.596-12.5 12.5-12.5s12.5 5.596 12.5 12.5z"></path>
</symbol>
<symbol id="confetti-5" viewBox="0 0 32 32">
<path fill="#381ddb" style="fill: var(--color7, #381ddb)" d="M31.786 16c0 8.509-6.898 15.407-15.407 15.407s-15.407-6.898-15.407-15.407c0-8.509 6.898-15.407 15.407-15.407s15.407 6.898 15.407 15.407z"></path>
</symbol>
<symbol id="confetti-6" viewBox="0 0 32 32">
<path fill="none" stroke="#fc5252" stroke-width="2.3063" stroke-miterlimit="4" stroke-linecap="butt" stroke-linejoin="miter" style="stroke: var(--color4, #fc5252)" d="M29.266 26.162l-6.771 0.553-0.452-6.779-6.771 0.553-0.452-6.779-6.771 0.553-0.452-6.779-6.771 0.553"></path>
</symbol>
<symbol id="confetti-7" viewBox="0 0 32 32">
<path fill="none" stroke="#381ddb" stroke-width="2.3925" stroke-miterlimit="4" stroke-linecap="butt" stroke-linejoin="miter" style="stroke: var(--color7, #381ddb)" d="M4.512 2.859l-0.123 7.047 7.048 0.018-0.123 7.047 7.048 0.018-0.123 7.047 7.048 0.018-0.123 7.047"></path>
</symbol>
<symbol id="confetti-8" viewBox="0 0 32 32">
<path fill="none" stroke="#84c4ff" stroke-width="1.4066" stroke-miterlimit="4" stroke-linecap="butt" stroke-linejoin="miter" style="stroke: var(--color2, #84c4ff)" d="M5.463 1.319l0.399 7.147 7.14-0.505 0.399 7.147 7.14-0.505 0.399 7.147 7.14-0.505 0.399 7.147"></path>
<path fill="none" stroke="#381ddb" stroke-width="1.4066" stroke-miterlimit="4" stroke-linecap="butt" stroke-linejoin="miter" style="stroke: var(--color7, #381ddb)" d="M3.37 3.693l0.399 7.147 7.14-0.505 0.399 7.147 7.14-0.505 0.399 7.147 7.14-0.505 0.399 7.147"></path>
</symbol>
<symbol id="confetti-9" viewBox="0 0 32 32">
<path d="M2.062 19.314l24.664-12.555c1.703-0.867 3.786-0.189 4.652 1.514s0.189 3.786-1.514 4.652l-24.664 12.555c-1.703 0.867-3.786 0.189-4.652-1.514s-0.189-3.786 1.514-4.652z"></path>
</symbol>
<symbol id="confetti-10" viewBox="0 0 32 32">
<path fill="#ffa3a3" style="fill: var(--color6, #ffa3a3)" d="M27.083 1.646l3.104 3.583-26.874 23.281-3.104-3.583 26.874-23.281z"></path>
</symbol>
<symbol id="confetti-11" viewBox="0 0 32 32">
<path fill="#ffa3a3" style="fill: var(--color6, #ffa3a3)" d="M0.028 5.352l3.549-3.549 26.62 26.62-3.549 3.549-26.62-26.62z"></path>
</symbol>
<symbol id="confetti-12" viewBox="0 0 32 32">
<path fill="#84c4ff" style="fill: var(--color2, #84c4ff)" d="M28.682 4.77l2.208 3.824-28.682 16.56-2.208-3.824 28.682-16.56z"></path>
</symbol>
</defs>
</svg>
