<svg xmlns="http://www.w3.org/2000/svg" aria-hidden="true" style="position:absolute;width:0;height:0;overflow:hidden"><defs><symbol id="linkedin" viewBox="0 0 32 32"><path fill="#fff" d="M24.447 24.452h-3.553v-5.569c0-1.328-.027-3.037-1.853-3.037-1.852 0-2.135 1.445-2.135 2.94v5.667h-3.555V13.001h3.413v1.56h.047c.477-.899 1.637-1.849 3.371-1.849 3.6 0 4.267 2.371 4.267 5.455v6.287h-.001zM9.337 11.433a2.067 2.067 0 0 1-1.908-1.275 2.058 2.058 0 0 1 .193-1.937 2.069 2.069 0 0 1 2.12-.877 2.059 2.059 0 0 1 1.62 1.623 2.07 2.07 0 0 1-.879 2.118c-.34.227-.739.347-1.147.347h.001zm1.782 13.019H7.555V13h3.565v11.452h-.001zM26.227 4H5.772C4.791 4 4 4.773 4 5.729V26.27c0 .956.792 1.729 1.771 1.729h20.451c.979 0 1.779-.773 1.779-1.729V5.729c0-.956-.8-1.729-1.779-1.729h.005z" style="fill:var(--color1, #fff)"/></symbol><symbol id="twitter" viewBox="0 0 32 32"><path fill="#fff" d="M29.549 7.542c-1.018.45-2.097.746-3.203.877a5.593 5.593 0 0 0 2.453-3.085 11.118 11.118 0 0 1-3.541 1.353 5.58 5.58 0 0 0-6.705-1.109 5.577 5.577 0 0 0-2.796 6.194A15.826 15.826 0 0 1 4.264 5.945a5.557 5.557 0 0 0-.755 2.804c0 1.933.984 3.641 2.48 4.641a5.562 5.562 0 0 1-2.525-.697v.069a5.58 5.58 0 0 0 4.473 5.468 5.603 5.603 0 0 1-2.52.096 5.58 5.58 0 0 0 5.209 3.873 11.198 11.198 0 0 1-8.254 2.309 15.783 15.783 0 0 0 8.547 2.507c10.257 0 15.867-8.497 15.867-15.867 0-.24-.007-.483-.017-.72a11.334 11.334 0 0 0 2.783-2.887l-.001-.001z" style="fill:var(--color1, #fff)"/></symbol><symbol id="facebook" viewBox="0 0 32 32"><path fill="#fff" d="M18.667 18H22l1.333-5.333h-4.667V10c0-1.373 0-2.667 2.667-2.667h2v-4.48c-.435-.057-2.076-.187-3.809-.187-3.62 0-6.191 2.209-6.191 6.267v3.733h-4v5.333h4v11.333h5.333V17.999z" style="fill:var(--color1, #fff)"/></symbol><symbol id="instagram" viewBox="0 0 32 32"><path fill="#fff" d="M16 2.667c3.623 0 4.075.013 5.496.08 1.42.067 2.387.289 3.237.62a6.51 6.51 0 0 1 2.363 1.537 6.538 6.538 0 0 1 1.537 2.363c.329.849.553 1.817.62 3.237.063 1.421.08 1.873.08 5.496s-.013 4.075-.08 5.496c-.067 1.42-.291 2.387-.62 3.237a6.53 6.53 0 0 1-1.537 2.363 6.55 6.55 0 0 1-2.363 1.537c-.849.329-1.817.553-3.237.62-1.421.063-1.873.08-5.496.08s-4.075-.013-5.496-.08c-1.42-.067-2.387-.291-3.237-.62a6.53 6.53 0 0 1-2.363-1.537 6.53 6.53 0 0 1-1.537-2.363c-.331-.849-.553-1.817-.62-3.237-.063-1.421-.08-1.873-.08-5.496s.013-4.075.08-5.496c.067-1.421.289-2.387.62-3.237a6.516 6.516 0 0 1 1.537-2.363 6.53 6.53 0 0 1 2.363-1.537c.851-.331 1.816-.553 3.237-.62 1.421-.063 1.873-.08 5.496-.08zm0 6.666a6.67 6.67 0 0 0-4.714 11.381 6.67 6.67 0 0 0 9.428 0 6.67 6.67 0 0 0 0-9.428A6.67 6.67 0 0 0 16 9.333zM24.667 9a1.667 1.667 0 1 0-3.334 0 1.667 1.667 0 0 0 3.334 0zM16 12a4.003 4.003 0 0 1 4 4 4.001 4.001 0 0 1-6.828 2.828 4.001 4.001 0 0 1 0-5.656A4.001 4.001 0 0 1 16 12z" style="fill:var(--color1, #fff)"/></symbol><symbol id="trumpet" viewBox="0 0 32 32"><path fill="#84c4ff" d="M31.591 9.839 22.162.409a1.395 1.395 0 0 0-2.377.879l-.746 9.701-4.807 4.807-1.371-1.371a1.395 1.395 0 0 0-1.973 1.972l1.371 1.371-2.742 2.742-1.371-1.371a1.395 1.395 0 0 0-1.973 1.972l1.371 1.371-4.971 4.971-.192-.192a1.394 1.394 0 1 0-1.972 1.972l2.357 2.357c.272.272.629.408.986.408s.714-.136.986-.408a1.395 1.395 0 0 0 0-1.973l-.192-.192 2.907-2.907a4.703 4.703 0 0 0 1.078 1.664c.893.893 2.081 1.385 3.344 1.385s2.45-.492 3.343-1.385l4.715-4.715a4.733 4.733 0 0 0-1.664-7.765l2.743-2.743 9.701-.746a1.395 1.395 0 0 0 .879-2.377zM17.96 21.497l-4.715 4.715c-.366.366-.853.568-1.371.568s-1.005-.202-1.371-.568-.568-.853-.568-1.371.202-1.005.568-1.371l4.717-4.716c.366-.365.852-.566 1.369-.566s1.005.202 1.371.568a1.941 1.941 0 0 1 0 2.742z" style="fill:var(--color2, #84c4ff)"/></symbol><symbol id="saxophone" viewBox="0 0 32 32"><path fill="#fff" d="M30.125 11.313h-9.437a1.874 1.874 0 1 0 0 3.75h9.437a1.875 1.875 0 0 0 0-3.75z" style="fill:var(--color1, #fff)"/><path fill="#fff" d="M30.125 16.938h-9.437v2.736a2.89 2.89 0 0 1-2.885 2.889c-1.37 0-2.56-.974-2.825-2.296l-3.02-16.199A5.066 5.066 0 0 0 5.694.167C3.483.736 1.939 2.819 1.939 5.235v4.203h-1a.937.937 0 1 0 0 1.876h3.812c.518 0 .938-.42.938-.938V6.564a.938.938 0 0 1 1.876 0v6.625h-.938a.937.937 0 1 0 0 1.876h.938v1.875h-.938a.937.937 0 1 0 0 1.876h.938v1.875h-.938a.937.937 0 1 0 0 1.876h1.106c.894 5.318 5.508 9.437 11.081 9.437h.016l.329-.006c6.013-.179 10.967-5.497 10.967-11.778v-3.279z" style="fill:var(--color1, #fff)"/></symbol><symbol id="guitar" viewBox="0 0 32 32"><path fill="#c00096" d="m19.107 10.225 1.31-1.31 2.705 2.705-1.31 1.31-2.705-2.705zM16.488 12.845l1.31-1.31 2.705 2.705-1.31 1.31-2.705-2.705zM23.57 4.152a.308.308 0 0 0-.152.399l.012.029.314 1.014-.05.046-1.965 1.965 2.706 2.705L26.4 8.345c.022-.022.043-.045.063-.068l1.016.315a.31.31 0 0 0 .37-.162c1.275-2.679 3.86-3.921 3.973-3.974a.307.307 0 0 0 .145-.42l-1.301-2.558a.313.313 0 0 0-.135-.135L27.987.047a.308.308 0 0 0-.442.133c-.012.027-1.27 2.685-3.974 3.973z" style="fill:var(--color3, #c00096)"/><path fill="#c00096" d="M16.704 24.19a1.144 1.144 0 0 1 .86-1.193 5.233 5.233 0 0 0 3.605-3.106.926.926 0 0 0-.203-1.004l-.012-.012a.927.927 0 0 0-1.023-.178c-.942.424-2.213.192-3.332-.551l1.288-1.288-2.706-2.705-.816.816c-.18-.897-.019-1.739.526-2.284.157-.157.341-.285.548-.382a.928.928 0 0 0-.188-1.742 5.235 5.235 0 0 0-6.265 3.873c-.128.532-.63.894-1.193.861a7.483 7.483 0 0 0-5.738 2.168c-2.74 2.74-2.74 7.199 0 9.94l2.543 2.543c2.74 2.74 7.199 2.74 9.94 0a7.482 7.482 0 0 0 2.167-5.755zm-7.234.292L7.518 22.53a.926.926 0 1 1 1.31-1.31l1.952 1.952a.926.926 0 1 1-1.31 1.31zm2.928-2.928-1.952-1.952a.926.926 0 1 1 1.31-1.31l1.952 1.952a.926.926 0 1 1-1.31 1.31z" style="fill:var(--color3, #c00096)"/></symbol><symbol id="bagpipes" viewBox="0 0 32 32"><path fill="#fc5252" d="M4.688 5.688H.938a.937.937 0 1 0 0 1.876h.938v3.75h1.875v-3.75h.938a.937.937 0 1 0 0-1.876zM29.188 11.312h-.938V7.389a2.807 2.807 0 0 0 1.875-2.64c0-1.551-1.262-2.813-2.812-2.813s-2.812 1.262-2.812 2.813c0 1.221.786 2.252 1.875 2.64v3.923h-.938a.937.937 0 1 0 0 1.876h.938v1.875h1.875v-1.875h.938c.518 0 .937-.419.937-.938s-.419-.938-.937-.938zM30.125 16.938H6.563a1.877 1.877 0 0 1-1.875-1.875v-.938a.937.937 0 0 0-.938-.937H1.875a.937.937 0 0 0-.938.937v.938a5.63 5.63 0 0 0 5.625 5.625h3.106c.894 5.319 5.508 9.375 11.081 9.375 6.213 0 11.25-5.037 11.25-11.25a1.874 1.874 0 0 0-1.875-1.875zM21.688 11.312h-.938V7.389a2.807 2.807 0 0 0 1.875-2.64c0-1.551-1.262-2.813-2.812-2.813s-2.812 1.262-2.812 2.813c0 1.221.786 2.252 1.875 2.64v3.923h-.938a.937.937 0 1 0 0 1.876h.938v1.875h1.875v-1.875h.938c.518 0 .937-.419.937-.938s-.419-.938-.937-.938z" style="fill:var(--color4, #fc5252)"/><path fill="#fc5252" d="M14.188 11.312h-.938V7.389a2.807 2.807 0 0 0 1.875-2.64c0-1.551-1.262-2.813-2.812-2.813S9.501 3.198 9.501 4.749c0 1.221.786 2.252 1.875 2.64v3.923h-.938a.937.937 0 1 0 0 1.876h.938v1.875h1.875v-1.875h.938c.518 0 .937-.419.937-.938s-.419-.938-.937-.938z" style="fill:var(--color4, #fc5252)"/></symbol><symbol id="mixer" viewBox="0 0 32 32"><path fill="#db841d" d="M29.188 5.221H2.813A2.816 2.816 0 0 0 0 8.034v15.932a2.815 2.815 0 0 0 2.813 2.812h26.375A2.815 2.815 0 0 0 32 23.966V8.034a2.816 2.816 0 0 0-2.812-2.813zM10.774 23.157c-3.946 0-7.157-3.211-7.157-7.157s3.211-7.157 7.157-7.157 7.157 3.211 7.157 7.157-3.211 7.157-7.157 7.157zm10.78-9.824v7.963a.938.938 0 0 1-1.876 0v-7.963a.938.938 0 0 1 0-1.728v-.695a.938.938 0 0 1 1.876 0v.695a.938.938 0 0 1 0 1.728zm3.404 6.812v1.152a.938.938 0 1 1-1.875 0v-1.152a.937.937 0 0 1 0-1.728v-7.506a.938.938 0 0 1 1.875 0v7.506a.938.938 0 0 1 0 1.728zm3.403-6.812v7.963a.938.938 0 0 1-1.876 0v-7.963a.938.938 0 0 1 0-1.728v-.695a.938.938 0 0 1 1.876 0v.695a.938.938 0 0 1 0 1.728z" style="fill:var(--color5, #db841d)"/><path fill="#db841d" d="M10.774 13.294c-1.492 0-2.706 1.214-2.706 2.706s1.214 2.706 2.706 2.706S13.48 17.492 13.48 16s-1.214-2.706-2.706-2.706zm0 3.537a.832.832 0 0 1 0-1.662.832.832 0 0 1 0 1.662z" style="fill:var(--color5, #db841d)"/></symbol><symbol id="phone" viewBox="0 0 32 32"><path fill="#ffa3a3" d="M28 21.893v4.715a1.335 1.335 0 0 1-1.24 1.331c-.583.04-1.059.061-1.427.061C13.55 28 4 18.449 4 6.667c0-.368.02-.844.061-1.427A1.334 1.334 0 0 1 5.392 4h4.715a.67.67 0 0 1 .664.6c.031.307.059.551.085.736a18.53 18.53 0 0 0 1.611 5.335.607.607 0 0 1-.196.756l-2.877 2.056a17.395 17.395 0 0 0 9.125 9.125l2.053-2.872a.62.62 0 0 1 .764-.199 18.551 18.551 0 0 0 5.333 1.607c.185.027.429.056.733.085a.665.665 0 0 1 .598.664h-.001z" style="fill:var(--color6, #ffa3a3)"/></symbol><symbol id="location" viewBox="0 0 32 32"><path fill="#ffa3a3" d="M24.485 23.152 16 31.637l-8.485-8.485A11.999 11.999 0 0 1 22.668 4.69a11.992 11.992 0 0 1 1.819 18.462zM16 17.333a2.67 2.67 0 0 0 2.667-2.667A2.668 2.668 0 1 0 16 17.333z" style="fill:var(--color6, #ffa3a3)"/></symbol><symbol id="email" viewBox="0 0 32 32"><path fill="#ffa3a3" d="M4 4h24a1.335 1.335 0 0 1 1.334 1.334v21.333A1.334 1.334 0 0 1 28 28.001H4a1.334 1.334 0 0 1-1.334-1.334V5.334A1.335 1.335 0 0 1 4 4zm12.08 11.577-8.549-7.26-1.727 2.032 10.293 8.74 10.108-8.747-1.744-2.017-8.381 7.252z" style="fill:var(--color6, #ffa3a3)"/></symbol><symbol id="arrow-down" viewBox="0 0 32 32"><path fill="#fff" d="M31.055 6.622c1.26 1.363 1.26 3.573 0 4.937L18.282 25.378c-1.26 1.363-3.303 1.363-4.563 0L.946 11.56C.317 10.879.001 9.983.001 9.092s.316-1.787.945-2.468c1.26-1.363 3.303-1.363 4.563 0l7.265 7.859 3.227 3.582 3.227-3.582 7.265-7.86c1.26-1.363 3.303-1.363 4.563 0z" style="fill:var(--color1, #fff)"/></symbol><symbol id="arrow-right" viewBox="0 0 32 32"><path fill="#fff" d="m21.563 14.667-7.152-7.152 1.885-1.885 10.371 10.371-10.371 10.371-1.885-1.885 7.152-7.152H5.334v-2.667h16.229z" style="fill:var(--color1, #fff)"/></symbol><symbol id="arrow-prev" viewBox="0 0 32 32"><path d="m14.602 16.147 6.522 6.522-1.863 1.863-8.386-8.386 8.386-8.386 1.863 1.863-6.522 6.522z"/></symbol><symbol id="arrow-next" viewBox="0 0 32 32"><path d="m17.399 16.146-6.522-6.522 1.863-1.863 8.386 8.385-8.386 8.386-1.863-1.863 6.522-6.522z"/></symbol><symbol id="play-hero" viewBox="0 0 32 32"><path fill="#fff" d="M16 29.333C8.636 29.333 2.667 23.364 2.667 16S8.636 2.667 16 2.667 29.333 8.636 29.333 16 23.364 29.333 16 29.333zm0-2.666a10.666 10.666 0 1 0 0-21.333 10.666 10.666 0 0 0 0 21.333zM14.163 11.22l6.505 4.336a.526.526 0 0 1 .175.696.529.529 0 0 1-.175.192l-6.507 4.336a.528.528 0 0 1-.547.026.536.536 0 0 1-.282-.468v-8.675a.541.541 0 0 1 .282-.47.534.534 0 0 1 .547.027z" style="fill:var(--color1, #fff)"/></symbol><symbol id="instagram-bg" viewBox="0 0 32 32"><path fill="#fc5252" d="M16 2.667c3.623 0 4.075.013 5.496.08 1.42.067 2.387.289 3.237.62a6.51 6.51 0 0 1 2.363 1.537 6.538 6.538 0 0 1 1.537 2.363c.329.849.553 1.817.62 3.237.063 1.421.08 1.873.08 5.496s-.013 4.075-.08 5.496c-.067 1.42-.291 2.387-.62 3.237a6.516 6.516 0 0 1-1.537 2.363 6.55 6.55 0 0 1-2.363 1.537c-.849.329-1.817.553-3.237.62-1.421.063-1.873.08-5.496.08s-4.075-.013-5.496-.08c-1.42-.067-2.387-.291-3.237-.62a6.53 6.53 0 0 1-2.363-1.537 6.53 6.53 0 0 1-1.537-2.363c-.331-.849-.553-1.817-.62-3.237-.063-1.421-.08-1.873-.08-5.496s.013-4.075.08-5.496c.067-1.421.289-2.387.62-3.237a6.516 6.516 0 0 1 1.537-2.363 6.53 6.53 0 0 1 2.363-1.537c.851-.331 1.816-.553 3.237-.62 1.421-.063 1.873-.08 5.496-.08zm0 6.666a6.67 6.67 0 0 0-4.714 11.381A6.668 6.668 0 1 0 16 9.333zM24.667 9a1.667 1.667 0 1 0-3.334 0 1.667 1.667 0 0 0 3.334 0zM16 12a4.003 4.003 0 0 1 4 4 4.001 4.001 0 0 1-6.828 2.828 3.995 3.995 0 0 1 0-5.656A4.003 4.003 0 0 1 16 12z" opacity=".1" style="fill:var(--color4, #fc5252)"/></symbol><symbol id="quotes-right" viewBox="0 0 32 32"><path fill="#381ddb" d="M25.664 8.003c1.373 1.459 2.111 3.095 2.111 5.747 0 4.667-3.276 8.849-8.04 10.917l-1.191-1.837c4.447-2.405 5.316-5.527 5.663-7.495-.716.371-1.653.5-2.572.415-2.405-.223-4.301-2.197-4.301-4.652a4.667 4.667 0 0 1 4.667-4.667c1.431 0 2.799.653 3.664 1.572zm-13.334 0c1.373 1.459 2.111 3.095 2.111 5.747 0 4.667-3.276 8.849-8.04 10.917L5.21 22.83c4.447-2.405 5.316-5.527 5.663-7.495-.716.371-1.653.5-2.572.415C5.896 15.527 4 13.553 4 11.098a4.667 4.667 0 0 1 4.667-4.667c1.431 0 2.799.653 3.664 1.572z" style="fill:var(--color7, #381ddb)"/></symbol><symbol id="quotes-left" viewBox="0 0 32 32"><path fill="#381ddb" d="M6.111 23.095C4.738 21.636 4 20 4 17.348c0-4.667 3.276-8.849 8.04-10.917l1.191 1.837c-4.447 2.405-5.316 5.527-5.663 7.495.716-.371 1.653-.5 2.572-.415 2.405.223 4.301 2.197 4.301 4.652a4.667 4.667 0 0 1-4.667 4.667c-1.431 0-2.799-.653-3.664-1.572zm13.333 0c-1.373-1.459-2.111-3.095-2.111-5.747 0-4.667 3.276-8.849 8.04-10.917l1.191 1.837c-4.447 2.405-5.316 5.527-5.663 7.495.716-.371 1.653-.5 2.572-.415 2.405.223 4.301 2.197 4.301 4.652a4.667 4.667 0 0 1-4.667 4.667c-1.431 0-2.799-.653-3.664-1.572z" style="fill:var(--color7, #381ddb)"/></symbol><symbol id="chat" viewBox="0 0 32 32"><path d="M13.333 4h5.333a10.662 10.662 0 0 1 10.667 10.666 10.664 10.664 0 0 1-10.667 10.667V30c-6.667-2.667-16-6.667-16-15.333A10.666 10.666 0 0 1 13.332 4.001zM16 22.667h2.667a7.995 7.995 0 0 0 7.39-4.938 7.998 7.998 0 0 0-7.39-11.06h-5.333a8 8 0 0 0-8 8c0 4.813 3.283 7.955 10.667 11.307v-3.307z"/></symbol><symbol id="heart" viewBox="0 0 32 32"><path d="M16.001 6.039c3.132-2.812 7.972-2.719 10.989.304a8.001 8.001 0 0 1 .315 10.981L15.998 28.647 4.694 17.324A8 8 0 0 1 16.001 6.039zm9.102 2.188a5.33 5.33 0 0 0-7.32-.204l-1.78 1.597-1.781-1.596a5.332 5.332 0 0 0-7.325.205 5.332 5.332 0 0 0-.256 7.268l9.36 9.375 9.36-9.373a5.334 5.334 0 0 0-.257-7.272z"/></symbol><symbol id="clock" viewBox="0 0 32 32"><path d="M16 29.333C8.636 29.333 2.667 23.364 2.667 16S8.636 2.667 16 2.667 29.333 8.636 29.333 16 23.364 29.333 16 29.333zm0-2.666a10.664 10.664 0 0 0 7.543-18.209 10.669 10.669 0 0 0-15.085 0A10.666 10.666 0 0 0 16 26.667zM17.333 16h5.333v2.667h-8V9.334h2.667v6.667z"/></symbol><symbol id="camera" viewBox="0 0 32 32"><path fill="#fc5252" d="M21.333 5.333a1.335 1.335 0 0 1 1.334 1.334v5.6L29.618 7.4a.666.666 0 0 1 1.05.547v16.107c0 .122-.033.242-.097.346s-.154.189-.262.246a.661.661 0 0 1-.691-.045l-6.951-4.867v5.6a1.334 1.334 0 0 1-1.334 1.334H2.666a1.334 1.334 0 0 1-1.334-1.334V6.667a1.335 1.335 0 0 1 1.334-1.334h18.667zM20 8H4v16h16V8zM9.867 11.772c.101 0 .201.028.287.083l5.807 3.696a.521.521 0 0 1 .246.449.524.524 0 0 1-.246.449l-5.807 3.697a.529.529 0 0 1-.545.017.53.53 0 0 1-.275-.47v-7.387c0-.295.24-.533.533-.533v-.001zM28 11.787l-5.333 3.733v.957L28 20.21v-8.424z" style="fill:var(--color4, #fc5252)"/></symbol><symbol id="play" viewBox="0 0 32 32"><path d="M16 29.333C8.636 29.333 2.667 23.364 2.667 16S8.636 2.667 16 2.667 29.333 8.636 29.333 16 23.364 29.333 16 29.333zm0-2.666a10.662 10.662 0 0 0 10.667-10.666A10.664 10.664 0 0 0 8.458 8.458 10.667 10.667 0 0 0 16 26.667zM14.163 11.22l6.505 4.336a.526.526 0 0 1 .175.696.52.52 0 0 1-.175.192l-6.507 4.336a.528.528 0 0 1-.546.026.527.527 0 0 1-.281-.468v-8.675a.541.541 0 0 1 .282-.47.534.534 0 0 1 .547.027z"/></symbol><symbol id="logo" viewBox="0 0 32 32"><path fill="#fff" d="m8.993 13.142-1.304 6.613H5.96l.68-3.486-2.201 2.834h-.822l-1.2-2.834-.699 3.486H-.001l1.322-6.613h1.521l1.549 3.826 3.004-3.826h1.596zM15.332 14.635l-1.02 5.12h-1.7l.104-.529c-.22.208-.469.362-.746.463a2.387 2.387 0 0 1-.841.151c-.56 0-1.008-.151-1.341-.453-.327-.302-.491-.734-.491-1.294 0-.208.022-.419.066-.633l.567-2.825h1.795l-.529 2.654a1.71 1.71 0 0 0-.038.35c0 .447.23.671.69.671.309 0 .564-.094.765-.283.202-.195.34-.482.416-.86l.51-2.532h1.795zM17.47 19.84c-.441 0-.866-.047-1.275-.142-.403-.094-.718-.214-.945-.359l.652-1.256c.233.145.51.261.831.35.321.082.636.123.945.123.548 0 .822-.123.822-.368 0-.101-.066-.173-.198-.217a3.115 3.115 0 0 0-.614-.142 8.472 8.472 0 0 1-.935-.217c-.239-.082-.45-.217-.633-.406s-.274-.453-.274-.794c0-.592.252-1.049.756-1.37.51-.327 1.168-.491 1.974-.491a4.9 4.9 0 0 1 1.058.113c.34.069.636.167.888.293l-.633 1.256c-.428-.258-.935-.387-1.521-.387-.277 0-.485.038-.623.113-.132.069-.198.161-.198.274 0 .101.063.176.189.227.132.044.346.094.642.151.365.063.668.135.907.217.246.082.457.217.633.406.183.189.274.447.274.775 0 .592-.255 1.049-.765 1.37s-1.162.482-1.955.482zM21.654 14.635h1.785l-1.02 5.12h-1.785l1.02-5.12zm1.143-.567c-.309 0-.557-.085-.746-.255s-.283-.381-.283-.633c0-.296.104-.538.312-.727.214-.195.494-.293.841-.293.315 0 .567.082.756.246a.76.76 0 0 1 .283.614c0 .309-.107.56-.321.756s-.494.293-.841.293zM27.751 16.902l1.719 2.853h-2.097l-1.049-1.748-.737.642-.217 1.105h-1.795l1.398-7.009h1.795l-.727 3.637 2.069-1.748h2.267l-2.626 2.267zM30.857 19.84c-.296 0-.541-.091-.737-.274a.96.96 0 0 1-.283-.708c0-.34.11-.614.331-.822.227-.214.5-.321.822-.321.302 0 .545.091.727.274.189.176.283.413.283.709 0 .334-.113.608-.34.822a1.11 1.11 0 0 1-.803.321z" style="fill:var(--color1, #fff)"/></symbol><symbol id="shape-1" viewBox="0 0 32 32"><path fill="#ffa3a3" d="M10.667 26.667c0-11.782 9.551-21.333 21.333-21.333v21.333H10.667z" style="fill:var(--color6, #ffa3a3)"/><path fill="#84c4ff" d="M0 5.333c11.782 0 21.333 9.551 21.333 21.333H0V5.333z" style="fill:var(--color2, #84c4ff)"/><path fill="#84c4ff" d="M10.667 26.667h10.667c0-5.41-2.014-10.35-5.333-14.111a21.255 21.255 0 0 0-5.333 14.111z" style="fill:var(--color2, #84c4ff)"/></symbol><symbol id="shape-2" viewBox="0 0 32 32"><path fill="#ffa3a3" d="M2.621 32c0-15.921 12.907-28.828 28.828-28.828V32H2.621z" style="fill:var(--color6, #ffa3a3)"/><path fill="#84c4ff" d="M17.103 8.276c0 4.571-3.705 8.276-8.276 8.276S.551 12.847.551 8.276 4.256 0 8.827 0s8.276 3.705 8.276 8.276z" style="fill:var(--color2, #84c4ff)"/><path fill="#84c4ff" d="M8.828 16.552a8.276 8.276 0 0 0 8.185-9.51 28.967 28.967 0 0 0-9.805 9.351 8.32 8.32 0 0 0 1.621.159z" style="fill:var(--color2, #84c4ff)"/></symbol><symbol id="confetti-1" viewBox="0 0 32 32"><path fill="#ffa3a3" d="M10.496 25.672 4.893 4.887l21.033 5.537-15.43 15.248z" style="fill:var(--color6, #ffa3a3)"/><path fill="none" stroke="#222" stroke-width="1.024" d="M23.293 16.993 9.127 30.992 3.983 11.909l19.31 5.083z" style="stroke:var(--color8, #222)"/></symbol><symbol id="confetti-2" viewBox="0 0 32 32"><path fill="#84c4ff" d="M6.667 6.816 32 6.777 19.3 28.999 6.666 6.815z" style="fill:var(--color2, #84c4ff)"/><path fill="none" stroke="#222" stroke-width="1.778" d="M12.635 23.428 1.528 3.925 23.8 3.891 12.635 23.428z" style="stroke:var(--color8, #222)"/></symbol><symbol id="confetti-3" viewBox="0 0 32 32"><path fill="none" stroke="#fc5252" stroke-width="2.327" d="M4.367 16.078 28.221 2.354l.042 27.52L4.367 16.078z" style="stroke:var(--color4, #fc5252)"/></symbol><symbol id="shape-3" viewBox="0 0 32 32"><path fill="#84c4ff" d="m31.862 27.807-36.19-9.712L-.603 4.192l32.464 23.615z" style="fill:var(--color2, #84c4ff)"/></symbol><symbol id="confetti-4" viewBox="0 0 32 32"><path fill="#84c4ff" d="M27.833 18.167C27.833 25.807 21.64 32 14 32S.167 25.807.167 18.167C.167 10.527 6.36 4.334 14 4.334s13.833 6.193 13.833 13.833z" style="fill:var(--color2, #84c4ff)"/><path fill="none" stroke="#222" stroke-width="2.667" d="M30.5 13.833c0 6.904-5.596 12.5-12.5 12.5s-12.5-5.596-12.5-12.5 5.596-12.5 12.5-12.5 12.5 5.596 12.5 12.5z" style="stroke:var(--color8, #222)"/></symbol><symbol id="confetti-5" viewBox="0 0 32 32"><path fill="#381ddb" d="M31.786 16c0 8.509-6.898 15.407-15.407 15.407S.972 24.509.972 16 7.87.593 16.379.593 31.786 7.491 31.786 16z" style="fill:var(--color7, #381ddb)"/></symbol><symbol id="confetti-6" viewBox="0 0 32 32"><path fill="none" stroke="#fc5252" stroke-width="2.306" d="m29.266 26.162-6.771.553-.452-6.779-6.771.553-.452-6.779-6.771.553-.452-6.779-6.771.553" style="stroke:var(--color4, #fc5252)"/></symbol><symbol id="confetti-7" viewBox="0 0 32 32"><path fill="none" stroke="#381ddb" stroke-width="2.393" d="m4.512 2.859-.123 7.047 7.048.018-.123 7.047 7.048.018-.123 7.047 7.048.018-.123 7.047" style="stroke:var(--color7, #381ddb)"/></symbol><symbol id="confetti-8" viewBox="0 0 32 32"><path fill="none" stroke="#84c4ff" stroke-width="1.407" d="m5.463 1.319.399 7.147 7.14-.505.399 7.147 7.14-.505.399 7.147 7.14-.505.399 7.147" style="stroke:var(--color2, #84c4ff)"/><path fill="none" stroke="#381ddb" stroke-width="1.407" d="m3.37 3.693.399 7.147 7.14-.505.399 7.147 7.14-.505.399 7.147 7.14-.505.399 7.147" style="stroke:var(--color7, #381ddb)"/></symbol><symbol id="confetti-9" viewBox="0 0 32 32"><path d="M2.062 19.314 26.726 6.759a3.458 3.458 0 1 1 3.138 6.166L5.2 25.48a3.458 3.458 0 1 1-3.138-6.166z"/></symbol><symbol id="confetti-10" viewBox="0 0 32 32"><path fill="#ffa3a3" d="m27.083 1.646 3.104 3.583L3.313 28.51.209 24.927 27.083 1.646z" style="fill:var(--color6, #ffa3a3)"/></symbol><symbol id="confetti-11" viewBox="0 0 32 32"><path fill="#ffa3a3" d="m.028 5.352 3.549-3.549 26.62 26.62-3.549 3.549L.028 5.352z" style="fill:var(--color6, #ffa3a3)"/></symbol><symbol id="confetti-12" viewBox="0 0 32 32"><path fill="#84c4ff" d="m28.682 4.77 2.208 3.824-28.682 16.56L0 21.33 28.682 4.77z" style="fill:var(--color2, #84c4ff)"/></symbol><symbol id="besart" viewBox="0 0 32 32"><path d="M22.121 15.145A7.965 7.965 0 0 0 24 10c0-4.411-3.589-8-8-8H6v28h12c4.411 0 8-3.589 8-8a8.003 8.003 0 0 0-3.879-6.855zM12 6h3.172c1.749 0 3.172 1.794 3.172 4s-1.423 4-3.172 4H12V6zm4.969 20H12v-8h4.969c1.827 0 3.313 1.794 3.313 4s-1.486 4-3.313 4z"/></symbol></defs></svg>