<svg aria-hidden="true" style="position: absolute; width: 0; height: 0; overflow: hidden;" version="1.1" xmlns="http://www.w3.org/2000/svg" xmlns:xlink="http://www.w3.org/1999/xlink">
<defs>
<symbol id="date-time" viewBox="0 0 424 32">
<path fill="#fff" opacity="0.5" style="fill: var(--color1, #fff)" d="M23.857 25.832h0.294v-0.294h-0.294v0.294zM23.857 31.413v0.294h0.294v-0.294h-0.294zM1.494 31.413h-0.294v0.294h0.294v-0.294zM1.494 26.974l-0.202-0.213-0.092 0.087v0.127h0.294zM12.908 16.194l0.202 0.213 0.001-0.001-0.203-0.212zM15.36 13.235l0.261 0.135 0.002-0.004-0.263-0.131zM14.768 8.035l-0.186 0.227 0.004 0.004 0.005 0.003 0.177-0.234zM7.75 7.823l0.123 0.267 0.003-0.001 0.003-0.001-0.128-0.264zM5.129 10.022l-0.159 0.247 0.235 0.152 0.163-0.228-0.239-0.171zM0.141 6.809l-0.244-0.164-0.167 0.248 0.252 0.162 0.159-0.247zM4.918 2.792l0.125 0.265 0.003-0.001-0.128-0.264zM17.643 2.412l-0.12 0.268 0.003 0.001 0.003 0.001 0.115-0.27zM21.49 5.456l-0.243 0.165 0.002 0.003 0.002 0.003 0.239-0.171zM21.87 14.587v0zM17.939 19.407l-0.2-0.215-0.002 0.002 0.202 0.213zM11.132 25.832l-0.202-0.213-0.537 0.507h0.739v-0.294zM23.564 25.832v5.58h0.587v-5.58h-0.587zM23.857 31.119h-22.364v0.587h22.364v-0.587zM1.787 31.413v-4.439h-0.587v4.439h0.587zM1.695 27.187l11.414-10.78-0.403-0.427-11.414 10.78 0.403 0.427zM13.111 16.406c1.219-1.163 2.065-2.176 2.51-3.037l-0.522-0.27c-0.4 0.774-1.189 1.733-2.394 2.882l0.405 0.425zM15.623 13.366c0.44-0.88 0.665-1.756 0.665-2.626h-0.587c0 0.765-0.198 1.552-0.603 2.363l0.525 0.263zM16.288 10.74c0-1.259-0.44-2.255-1.342-2.939l-0.355 0.468c0.732 0.556 1.11 1.364 1.11 2.472h0.587zM14.954 7.808c-0.863-0.709-2.111-1.039-3.695-1.039v0.587c1.516 0 2.607 0.318 3.322 0.906l0.373-0.454zM11.259 6.769c-1.336 0-2.55 0.262-3.637 0.791l0.257 0.528c0.998-0.486 2.123-0.731 3.38-0.731v-0.587zM7.628 7.556c-1.092 0.502-2.005 1.269-2.737 2.294l0.478 0.341c0.677-0.947 1.511-1.646 2.505-2.102l-0.245-0.534zM5.288 9.775l-4.988-3.213-0.318 0.494 4.989 3.213 0.318-0.494zM0.385 6.972c1.124-1.672 2.673-2.977 4.659-3.914l-0.251-0.531c-2.073 0.979-3.708 2.351-4.895 4.118l0.487 0.327zM5.046 3.057c1.983-0.964 4.263-1.45 6.847-1.45v-0.587c-2.658 0-5.029 0.5-7.104 1.509l0.257 0.528zM11.893 1.606c2.166 0 4.040 0.361 5.629 1.073l0.24-0.536c-1.68-0.753-3.639-1.125-5.87-1.125v0.587zM17.528 2.682c1.618 0.685 2.853 1.666 3.719 2.939l0.485-0.33c-0.938-1.377-2.267-2.425-3.975-3.149l-0.229 0.541zM21.251 5.627c0.89 1.241 1.34 2.715 1.34 4.437h0.587c0-1.83-0.48-3.427-1.45-4.779l-0.477 0.342zM22.591 10.064c0 1.564-0.329 3.028-0.986 4.396l0.529 0.254c0.696-1.45 1.044-3.001 1.044-4.65h-0.587zM21.606 14.46c-0.653 1.361-1.933 2.937-3.867 4.731l0.399 0.43c1.956-1.814 3.297-3.45 3.997-4.908l-0.529-0.254zM17.737 19.193l-6.806 6.426 0.403 0.427 6.806-6.426-0.403-0.427zM11.132 26.126h12.725v-0.587h-12.725v0.587zM48.793 25.832h0.294v-0.294h-0.294v0.294zM48.793 31.413v0.294h0.294v-0.294h-0.294zM26.429 31.413h-0.294v0.294h0.294v-0.294zM26.429 26.974l-0.202-0.213-0.092 0.087v0.127h0.294zM37.844 16.194l0.202 0.213 0.001-0.001-0.203-0.212zM40.296 13.235l0.261 0.135 0.002-0.004-0.263-0.131zM39.704 8.035l-0.186 0.227 0.004 0.004 0.004 0.003 0.177-0.234zM32.686 7.823l0.123 0.267 0.003-0.001 0.003-0.001-0.129-0.264zM30.065 10.022l-0.159 0.247 0.235 0.152 0.163-0.228-0.239-0.171zM25.077 6.809l-0.244-0.164-0.167 0.248 0.252 0.162 0.159-0.247zM29.854 2.792l0.125 0.265 0.003-0.001-0.129-0.264zM42.578 2.412l-0.12 0.268 0.003 0.001 0.003 0.001 0.114-0.27zM46.426 5.456l-0.242 0.165 0.002 0.003 0.002 0.003 0.238-0.171zM46.806 14.587v0zM42.874 19.407l-0.2-0.215-0.002 0.002 0.201 0.213zM36.068 25.832l-0.201-0.213-0.537 0.507h0.738v-0.294zM48.499 25.832v5.58h0.587v-5.58h-0.587zM48.793 31.119h-22.363v0.587h22.363v-0.587zM26.723 31.413v-4.439h-0.587v4.439h0.587zM26.631 27.187l11.414-10.78-0.403-0.427-11.414 10.78 0.403 0.427zM38.047 16.406c1.219-1.163 2.065-2.176 2.51-3.037l-0.522-0.27c-0.4 0.774-1.189 1.733-2.394 2.882l0.405 0.425zM40.558 13.366c0.44-0.88 0.665-1.756 0.665-2.626h-0.587c0 0.765-0.198 1.552-0.603 2.363l0.525 0.263zM41.223 10.74c0-1.259-0.44-2.255-1.342-2.939l-0.355 0.468c0.732 0.556 1.11 1.364 1.11 2.472h0.587zM39.89 7.808c-0.863-0.709-2.111-1.039-3.695-1.039v0.587c1.516 0 2.607 0.318 3.323 0.906l0.373-0.454zM36.195 6.769c-1.336 0-2.55 0.262-3.637 0.791l0.257 0.528c0.998-0.486 2.123-0.731 3.38-0.731v-0.587zM32.564 7.556c-1.092 0.502-2.005 1.269-2.737 2.294l0.478 0.341c0.677-0.947 1.511-1.646 2.505-2.102l-0.245-0.534zM30.224 9.775l-4.989-3.213-0.318 0.494 4.988 3.213 0.318-0.494zM25.32 6.972c1.124-1.672 2.673-2.977 4.659-3.914l-0.251-0.531c-2.073 0.979-3.708 2.351-4.895 4.118l0.487 0.327zM29.982 3.057c1.983-0.964 4.263-1.45 6.847-1.45v-0.587c-2.658 0-5.028 0.5-7.104 1.509l0.257 0.528zM36.829 1.606c2.166 0 4.040 0.361 5.629 1.073l0.24-0.536c-1.68-0.753-3.639-1.125-5.87-1.125v0.587zM42.464 2.682c1.618 0.685 2.853 1.666 3.719 2.939l0.485-0.33c-0.937-1.377-2.267-2.425-3.975-3.149l-0.229 0.541zM46.187 5.627c0.89 1.241 1.34 2.715 1.34 4.437h0.587c0-1.83-0.48-3.427-1.45-4.779l-0.477 0.342zM47.527 10.064c0 1.564-0.329 3.028-0.986 4.396l0.529 0.254c0.696-1.45 1.043-3.001 1.043-4.65h-0.587zM46.541 14.46c-0.653 1.361-1.933 2.937-3.867 4.731l0.399 0.43c1.956-1.814 3.297-3.45 3.997-4.908l-0.529-0.254zM42.673 19.193l-6.806 6.426 0.403 0.427 6.806-6.426-0.403-0.427zM36.068 26.126h12.725v-0.587h-12.725v0.587zM75.768 0.045h0.294v-0.294h-0.294v0.294zM75.768 31.413v0.294h0.294v-0.294h-0.294zM69.469 31.413h-0.294v0.294h0.294v-0.294zM69.469 28.792h0.294v-0.814l-0.52 0.627 0.226 0.187zM56.533 30.314l-0.143 0.257 0.002 0.001 0.141-0.257zM52.474 26.213v0zM52.474 13.869v0zM56.533 9.768l-0.141-0.257-0.002 0.001 0.143 0.256zM69.173 11.078l-0.219 0.195 0.513 0.575v-0.77h-0.294zM69.173 0.045v-0.294h-0.294v0.294h0.294zM67.651 24.649l0.21 0.205 0.002-0.003-0.213-0.202zM67.651 15.475l-0.213 0.202 0.003 0.003 0.21-0.205zM59.323 15.475l0.21 0.205 0.002-0.003-0.213-0.202zM59.323 24.649l-0.213 0.202 0.003 0.003 0.21-0.205zM75.475 0.045v31.368h0.587v-31.368h-0.587zM75.768 31.119h-6.299v0.587h6.299v-0.587zM69.763 31.413v-2.621h-0.587v2.621h0.587zM69.243 28.604c-1.567 1.891-3.843 2.853-6.876 2.853v0.587c3.167 0 5.626-1.011 7.328-3.066l-0.452-0.375zM62.367 31.457c-2.096 0-3.992-0.469-5.693-1.401l-0.282 0.515c1.794 0.984 3.788 1.473 5.975 1.473v-0.587zM56.676 30.057c-1.67-0.931-2.984-2.258-3.945-3.987l-0.513 0.285c1.012 1.822 2.404 3.229 4.172 4.214l0.286-0.513zM52.731 26.070c-0.959-1.726-1.443-3.733-1.443-6.030h-0.587c0 2.381 0.502 4.489 1.517 6.315l0.513-0.285zM51.288 20.041c0-2.297 0.484-4.304 1.443-6.030l-0.513-0.285c-1.014 1.825-1.517 3.933-1.517 6.315h0.587zM52.731 14.011c0.961-1.729 2.275-3.056 3.945-3.987l-0.286-0.513c-1.769 0.986-3.16 2.393-4.172 4.215l0.513 0.285zM56.674 10.025c1.701-0.933 3.596-1.401 5.693-1.401v-0.587c-2.187 0-4.181 0.49-5.975 1.474l0.282 0.515zM62.367 8.624c2.836 0 5.018 0.892 6.587 2.65l0.438-0.391c-1.701-1.906-4.055-2.846-7.025-2.846v0.587zM69.467 11.078v-11.034h-0.587v11.034h0.587zM69.173 0.338h6.595v-0.587h-6.595v0.587zM63.508 26.633c1.737 0 3.195-0.592 4.353-1.78l-0.42-0.41c-1.041 1.067-2.344 1.602-3.933 1.602v0.587zM67.864 24.851c1.161-1.221 1.73-2.835 1.73-4.81h-0.587c0 1.857-0.531 3.315-1.568 4.406l0.425 0.405zM69.594 20.041c0-1.975-0.568-3.577-1.732-4.771l-0.42 0.41c1.035 1.061 1.565 2.503 1.565 4.361h0.587zM67.864 15.273c-1.157-1.217-2.616-1.825-4.356-1.825v0.587c1.586 0 2.889 0.548 3.93 1.642l0.425-0.405zM63.508 13.448c-1.766 0-3.24 0.607-4.398 1.825l0.425 0.405c1.040-1.093 2.357-1.642 3.973-1.642v-0.587zM59.113 15.27c-1.164 1.194-1.732 2.795-1.732 4.771h0.587c0-1.858 0.531-3.3 1.565-4.361l-0.42-0.41zM57.381 20.041c0 1.976 0.568 3.59 1.729 4.81l0.425-0.405c-1.037-1.090-1.568-2.548-1.568-4.406h-0.587zM59.113 24.854c1.159 1.189 2.632 1.78 4.395 1.78v-0.587c-1.618 0-2.935-0.536-3.975-1.602l-0.42 0.41zM127.809 1.82h0.294v-0.294h-0.294v0.294zM127.809 31.413v0.294h0.294v-0.294h-0.294zM120.96 31.413h-0.294v0.294h0.294v-0.294zM120.96 7.316h0.294v-0.294h-0.294v0.294zM115.041 7.316h-0.294v0.294h0.294v-0.294zM115.041 1.82v-0.294h-0.294v0.294h0.294zM127.515 1.82v29.593h0.587v-29.593h-0.587zM127.809 31.119h-6.849v0.587h6.849v-0.587zM121.254 31.413v-24.097h-0.587v24.097h0.587zM120.96 7.022h-5.919v0.587h5.919v-0.587zM115.335 7.316v-5.496h-0.587v5.496h0.587zM115.041 2.114h12.767v-0.587h-12.767v0.587zM146.773 13.869l-0.22-0.194-0.35 0.398 0.523 0.085 0.047-0.29zM152.734 16.786l-0.217 0.197 0.002 0.002 0.215-0.199zM153.453 27.143l0.249 0.156 0.001-0.002-0.25-0.154zM149.31 30.61l-0.125-0.266-0.001 0.001 0.126 0.265zM136.373 31.117l-0.080 0.283 0.005 0.001 0.075-0.284zM131.258 28.75l-0.262-0.133-0.114 0.224 0.204 0.147 0.171-0.238zM133.921 23.507l0.176-0.235-0.28-0.21-0.158 0.312 0.262 0.133zM137.811 25.494l-0.091 0.279 0.003 0.001 0.003 0.001 0.085-0.281zM146.435 25.198l0.161 0.245 0.003-0.002 0.002-0.002-0.166-0.242zM139.248 18.73h-0.294v0.294h0.294v-0.294zM139.248 14.207l-0.22-0.194-0.074 0.083v0.111h0.294zM145.336 7.316l0.22 0.194 0.431-0.488h-0.651v0.294zM132.738 7.316h-0.294v0.294h0.294v-0.294zM132.738 1.82v-0.294h-0.294v0.294h0.294zM153.453 1.82h0.294v-0.294h-0.294v0.294zM153.453 6.259l0.221 0.194 0.073-0.083v-0.111h-0.294zM146.726 14.158c2.546 0.415 4.466 1.364 5.791 2.825l0.435-0.395c-1.437-1.583-3.491-2.579-6.131-3.009l-0.095 0.58zM152.518 16.985c1.326 1.434 1.993 3.221 1.993 5.381h0.587c0-2.293-0.713-4.226-2.15-5.78l-0.431 0.399zM154.512 22.366c0 1.665-0.436 3.204-1.309 4.623l0.5 0.308c0.93-1.512 1.396-3.157 1.396-4.931h-0.587zM153.204 26.987c-0.866 1.38-2.199 2.502-4.019 3.357l0.25 0.531c1.9-0.892 3.329-2.082 4.267-3.576l-0.497-0.312zM149.183 30.345c-1.782 0.85-3.991 1.282-6.638 1.282v0.587c2.708 0 5.008-0.442 6.891-1.339l-0.253-0.53zM142.546 31.627c-2.060 0-4.092-0.265-6.097-0.794l-0.15 0.568c2.054 0.542 4.136 0.813 6.247 0.813v-0.587zM136.453 30.834c-1.974-0.556-3.647-1.332-5.023-2.323l-0.343 0.476c1.442 1.038 3.179 1.841 5.207 2.412l0.159-0.565zM131.52 28.883l2.663-5.242-0.523-0.266-2.663 5.242 0.523 0.266zM133.745 23.742c1.156 0.866 2.481 1.543 3.974 2.031l0.183-0.558c-1.438-0.47-2.705-1.118-3.804-1.943l-0.352 0.47zM137.726 25.775c1.521 0.459 3.072 0.689 4.651 0.689v-0.587c-1.521 0-3.014-0.221-4.481-0.664l-0.17 0.562zM142.376 26.464c1.752 0 3.168-0.33 4.22-1.021l-0.322-0.491c-0.921 0.605-2.211 0.924-3.897 0.924v0.587zM146.601 25.441c1.067-0.732 1.607-1.767 1.607-3.075h-0.587c0 1.117-0.447 1.97-1.352 2.59l0.332 0.484zM148.208 22.366c0-1.299-0.502-2.306-1.517-2.972-0.993-0.652-2.446-0.957-4.315-0.957v0.587c1.823 0 3.14 0.301 3.992 0.861 0.831 0.546 1.252 1.357 1.252 2.481h0.587zM142.376 18.437h-3.128v0.587h3.128v-0.587zM139.542 18.73v-4.523h-0.587v4.523h0.587zM139.468 14.401l6.088-6.891-0.44-0.389-6.088 6.891 0.44 0.389zM145.336 7.022h-12.598v0.587h12.598v-0.587zM133.031 7.316v-5.496h-0.587v5.496h0.587zM132.738 2.114h20.715v-0.587h-20.715v0.587zM153.159 1.82v4.439h0.587v-4.439h-0.587zM153.232 6.065l-6.679 7.61 0.441 0.387 6.679-7.61-0.441-0.387zM179.993 10.867l-0.206 0.209 0.002 0.002 0.204-0.211zM182.614 31.413v0.294h0.294v-0.294h-0.294zM176.019 31.413h-0.294v0.294h0.294v-0.294zM174.835 15.391l-0.221 0.193 0.002 0.002 0.001 0.002 0.218-0.197zM167.437 15.602l0.21 0.205 0.003-0.003-0.213-0.202zM165.958 31.413v0.294h0.294v-0.294h-0.294zM159.363 31.413h-0.294v0.294h0.294v-0.294zM159.363 0.045v-0.294h-0.294v0.294h0.294zM165.958 0.045h0.294v-0.294h-0.294v0.294zM165.958 11.036h-0.294v0.709l0.501-0.501-0.208-0.208zM169.128 9.049l0.1 0.276 0.003-0.001 0.003-0.001-0.106-0.274zM173.187 8.624c2.755 0 4.945 0.824 6.601 2.452l0.412-0.419c-1.783-1.754-4.131-2.621-7.012-2.621v0.587zM179.789 11.078c1.672 1.618 2.532 4.038 2.532 7.314h0.587c0-3.375-0.887-5.972-2.711-7.736l-0.408 0.422zM182.32 18.392v13.021h0.587v-13.021h-0.587zM182.614 31.119h-6.595v0.587h6.595v-0.587zM176.313 31.413v-12.006h-0.587v12.006h0.587zM176.313 19.407c0-1.839-0.401-3.263-1.259-4.213l-0.436 0.394c0.72 0.797 1.108 2.051 1.108 3.819h0.587zM175.056 15.197c-0.858-0.981-2.089-1.453-3.645-1.453v0.587c1.431 0 2.483 0.43 3.203 1.253l0.442-0.387zM171.411 13.744c-1.729 0-3.136 0.545-4.187 1.656l0.427 0.403c0.922-0.975 2.165-1.472 3.761-1.472v-0.587zM167.227 15.397c-1.059 1.089-1.563 2.698-1.563 4.77h0.587c0-1.986 0.483-3.421 1.397-4.361l-0.421-0.409zM165.664 20.168v11.245h0.587v-11.245h-0.587zM165.958 31.119h-6.595v0.587h6.595v-0.587zM159.656 31.413v-31.368h-0.587v31.368h0.587zM159.363 0.338h6.595v-0.587h-6.595v0.587zM165.664 0.045v10.992h0.587v-10.992h-0.587zM166.165 11.244c0.841-0.841 1.861-1.481 3.064-1.919l-0.201-0.552c-1.278 0.465-2.372 1.149-3.278 2.055l0.415 0.415zM169.234 9.323c1.203-0.465 2.52-0.699 3.953-0.699v-0.587c-1.498 0-2.887 0.245-4.164 0.738l0.211 0.548zM250.213 25.198v0.294h0.294v-0.294h-0.294zM245.393 25.198v-0.294h-0.294v0.294h0.294zM245.393 31.413v0.294h0.294v-0.294h-0.294zM238.714 31.413h-0.294v0.294h0.294v-0.294zM238.714 25.198h0.294v-0.294h-0.294v0.294zM222.776 25.198h-0.294v0.294h0.294v-0.294zM222.776 20.59l-0.235-0.175-0.058 0.078v0.097h0.294zM236.727 1.82v-0.294h-0.148l-0.088 0.118 0.235 0.175zM243.914 1.82l0.238 0.173 0.339-0.466h-0.576v0.294zM230.977 19.618l-0.238-0.173-0.339 0.466h0.576v-0.294zM238.925 19.618v0.294h0.294v-0.294h-0.294zM238.925 14.080v-0.294h-0.294v0.294h0.294zM245.393 14.080h0.294v-0.294h-0.294v0.294zM245.393 19.618h-0.294v0.294h0.294v-0.294zM250.213 19.618h0.294v-0.294h-0.294v0.294zM250.213 24.905h-4.819v0.587h4.819v-0.587zM245.1 25.198v6.214h0.587v-6.214h-0.587zM245.393 31.119h-6.679v0.587h6.679v-0.587zM239.007 31.413v-6.214h-0.587v6.214h0.587zM238.714 24.905h-15.938v0.587h15.938v-0.587zM223.070 25.198v-4.608h-0.587v4.608h0.587zM223.012 20.765l13.951-18.77-0.471-0.35-13.951 18.77 0.471 0.35zM236.727 2.114h7.187v-0.587h-7.187v0.587zM243.676 1.648l-12.936 17.798 0.475 0.345 12.936-17.798-0.475-0.345zM230.977 19.912h7.948v-0.587h-7.948v0.587zM239.219 19.618v-5.538h-0.587v5.538h0.587zM238.925 14.374h6.468v-0.587h-6.468v0.587zM245.1 14.080v5.538h0.587v-5.538h-0.587zM245.393 19.912h4.819v-0.587h-4.819v0.587zM249.919 19.618v5.58h0.587v-5.58h-0.587zM271.665 13.995v0zM275.343 17.251l-0.247 0.158 0.001 0.002 0.246-0.161zM275.216 27.27v0zM271.158 30.736l0.124 0.266 0.002-0.001-0.126-0.265zM255.77 28.115v0zM254.163 8.627v0zM259.448 3.173l-0.14-0.258-0.001 0.001 0.141 0.257zM271.877 1.862l-0.072 0.284 0.003 0.001 0.004 0.001 0.066-0.286zM275.597 3.342l0.262 0.132 0.12-0.237-0.223-0.143-0.158 0.247zM273.060 8.373l-0.164 0.244 0.276 0.186 0.15-0.297-0.262-0.132zM261.562 9.092v0zM259.194 15.475l-0.293-0.012-0.030 0.751 0.531-0.531-0.208-0.208zM268.664 25.621l-0.19-0.224-0.001 0.001-0.002 0.001 0.193 0.221zM268.664 19.195l-0.197 0.218 0.004 0.003 0.004 0.003 0.19-0.224zM261.35 19.238l0.191 0.223 0.002-0.002 0.002-0.002-0.194-0.22zM261.308 25.579v0zM266.508 13.148c1.848 0 3.522 0.372 5.028 1.111l0.259-0.527c-1.594-0.783-3.358-1.171-5.287-1.171v0.587zM271.536 14.259c1.503 0.738 2.688 1.787 3.56 3.15l0.495-0.317c-0.932-1.456-2.199-2.577-3.796-3.36l-0.259 0.527zM275.098 17.411c0.867 1.328 1.305 2.877 1.305 4.659h0.587c0-1.882-0.464-3.546-1.4-4.98l-0.492 0.321zM276.402 22.070c0 1.921-0.479 3.597-1.431 5.038l0.49 0.324c1.021-1.547 1.528-3.337 1.528-5.362h-0.587zM274.972 27.108c-0.955 1.446-2.266 2.567-3.94 3.363l0.252 0.53c1.764-0.839 3.159-2.029 4.177-3.57l-0.49-0.324zM271.034 30.47c-1.648 0.769-3.493 1.156-5.541 1.156v0.587c2.123 0 4.055-0.402 5.789-1.211l-0.248-0.532zM265.493 31.627c-4.079 0-7.235-1.246-9.507-3.71l-0.432 0.398c2.406 2.609 5.732 3.899 9.939 3.899v-0.587zM255.986 27.916c-2.273-2.465-3.431-6.006-3.431-10.666h-0.587c0 4.753 1.182 8.456 3.587 11.064l0.432-0.398zM252.555 17.251c0-3.317 0.627-6.142 1.868-8.487l-0.519-0.275c-1.296 2.447-1.937 5.371-1.937 8.761h0.587zM254.423 8.764c1.243-2.348 2.965-4.123 5.166-5.334l-0.283-0.514c-2.308 1.269-4.109 3.13-5.402 5.573l0.519 0.275zM259.588 3.431c2.234-1.213 4.819-1.825 7.765-1.825v-0.587c-3.029 0-5.714 0.629-8.046 1.896l0.28 0.516zM267.353 1.606c1.555 0 3.039 0.18 4.451 0.54l0.145-0.569c-1.462-0.373-2.995-0.559-4.596-0.559v0.587zM271.811 2.148c1.441 0.332 2.648 0.815 3.628 1.441l0.316-0.495c-1.049-0.67-2.322-1.174-3.812-1.518l-0.132 0.572zM275.335 3.21l-2.536 5.031 0.524 0.264 2.536-5.031-0.524-0.264zM273.224 8.129c-1.525-1.027-3.432-1.53-5.702-1.53v0.587c2.183 0 3.968 0.483 5.374 1.43l0.328-0.487zM267.522 6.6c-2.568 0-4.636 0.752-6.168 2.284l0.415 0.415c1.399-1.399 3.305-2.112 5.753-2.112v-0.587zM261.354 8.884c-1.533 1.534-2.338 3.741-2.453 6.579l0.587 0.024c0.111-2.742 0.884-4.79 2.282-6.188l-0.415-0.415zM259.402 15.683c1.678-1.679 4.033-2.535 7.106-2.535v-0.587c-3.184 0-5.705 0.891-7.521 2.707l0.415 0.415zM265.113 27.098c1.52 0 2.778-0.411 3.745-1.256l-0.387-0.442c-0.837 0.732-1.947 1.111-3.358 1.111v0.587zM268.854 25.845c1.003-0.851 1.499-2.008 1.499-3.437h-0.587c0 1.277-0.435 2.262-1.291 2.989l0.38 0.448zM270.352 22.408c0-1.428-0.495-2.585-1.499-3.437l-0.38 0.448c0.857 0.727 1.291 1.712 1.291 2.989h0.587zM268.861 18.978c-0.969-0.878-2.257-1.302-3.833-1.302v0.587c1.468 0 2.603 0.393 3.439 1.15l0.394-0.435zM265.028 17.676c-1.552 0-2.851 0.441-3.872 1.342l0.388 0.44c0.896-0.79 2.049-1.195 3.484-1.195v-0.587zM261.16 19.014c-1.026 0.875-1.541 2.015-1.541 3.394h0.587c0-1.213 0.444-2.188 1.334-2.947l-0.381-0.447zM259.619 22.408c0 1.376 0.498 2.515 1.495 3.391l0.388-0.441c-0.863-0.759-1.296-1.734-1.296-2.95h-0.587zM261.114 25.799c0.998 0.877 2.342 1.299 3.999 1.299v-0.587c-1.557 0-2.749-0.395-3.611-1.153l-0.388 0.441zM316.465 10.867l-0.208 0.206v0.002l0.003 0.002 0.205-0.209zM319.002 31.413v0.294h0.294v-0.294h-0.294zM312.408 31.413h-0.294v0.294h0.294v-0.294zM311.266 15.391l-0.229 0.185 0.003 0.004 0.003 0.004 0.223-0.193zM304.417 15.56l0.217 0.198 0.003-0.003-0.22-0.195zM303.063 31.413v0.294h0.294v-0.294h-0.294zM296.47 31.413h-0.294v0.294h0.294v-0.294zM288.521 15.56l0.217 0.198 0.003-0.003-0.219-0.195zM287.169 31.413v0.294h0.294v-0.294h-0.294zM280.574 31.413h-0.294v0.294h0.294v-0.294zM280.574 8.669v-0.294h-0.294v0.294h0.294zM286.873 8.669h0.294v-0.294h-0.294v0.294zM286.873 11.29h-0.294v0.776l0.514-0.582-0.22-0.194zM289.959 9.092l-0.111-0.272-0.002 0.001 0.113 0.271zM298.372 9.303l-0.132 0.263 0.003 0.001 0.003 0.001 0.126-0.265zM301.499 12.051l-0.244 0.16 0.223 0.343 0.252-0.322-0.232-0.181zM305.010 9.303l-0.123-0.268v0.001l0.123 0.267zM309.701 8.624c2.786 0 4.959 0.825 6.556 2.449l0.417-0.412c-1.729-1.758-4.063-2.624-6.972-2.624v0.587zM316.26 11.076c1.615 1.588 2.448 4.008 2.448 7.316h0.587c0-3.399-0.857-5.997-2.625-7.734l-0.411 0.419zM318.708 18.392v13.021h0.587v-13.021h-0.587zM319.002 31.119h-6.594v0.587h6.594v-0.587zM312.702 31.413v-12.006h-0.587v12.006h0.587zM312.702 19.407c0-1.837-0.388-3.259-1.215-4.209l-0.443 0.386c0.696 0.797 1.072 2.053 1.072 3.823h0.587zM311.492 15.205c-0.799-0.984-1.946-1.461-3.397-1.461v0.587c1.309 0 2.275 0.424 2.942 1.244l0.455-0.37zM308.095 13.744c-1.621 0-2.933 0.534-3.899 1.62l0.44 0.39c0.837-0.943 1.979-1.423 3.458-1.423v-0.587zM304.2 15.362c-0.969 1.061-1.43 2.625-1.43 4.637h0.587c0-1.934 0.443-3.329 1.277-4.241l-0.435-0.396zM302.77 19.999v11.414h0.587v-11.414h-0.587zM303.063 31.119h-6.594v0.587h6.594v-0.587zM296.763 31.413v-12.006h-0.587v12.006h0.587zM296.763 19.407c0-1.821-0.364-3.241-1.142-4.211-0.79-0.981-1.961-1.452-3.464-1.452v0.587c1.373 0 2.354 0.424 3.006 1.232 0.658 0.821 1.013 2.085 1.013 3.843h0.587zM292.157 13.744c-1.594 0-2.891 0.535-3.855 1.62l0.439 0.39c0.839-0.944 1.967-1.423 3.416-1.423v-0.587zM288.305 15.362c-0.971 1.061-1.43 2.625-1.43 4.637h0.587c0-1.934 0.442-3.329 1.276-4.241l-0.433-0.396zM286.875 19.999v11.414h0.587v-11.414h-0.587zM287.169 31.119h-6.595v0.587h6.595v-0.587zM280.867 31.413v-22.744h-0.587v22.744h0.587zM280.574 8.962h6.299v-0.587h-6.299v0.587zM286.579 8.669v2.621h0.587v-2.621h-0.587zM287.093 11.484c0.815-0.924 1.807-1.631 2.979-2.122l-0.227-0.542c-1.252 0.524-2.317 1.282-3.193 2.275l0.44 0.388zM290.070 9.363c1.202-0.492 2.516-0.739 3.948-0.739v-0.587c-1.501 0-2.892 0.26-4.171 0.783l0.223 0.543zM294.018 8.624c1.565 0 2.971 0.316 4.222 0.941l0.264-0.525c-1.342-0.671-2.839-1.003-4.486-1.003v0.587zM298.246 9.568c1.248 0.597 2.249 1.476 3.009 2.643l0.49-0.32c-0.819-1.257-1.902-2.209-3.247-2.853l-0.252 0.53zM301.731 12.232c0.901-1.146 2.032-2.033 3.4-2.663l-0.244-0.533c-1.45 0.667-2.657 1.612-3.617 2.833l0.461 0.363zM305.13 9.571c1.394-0.63 2.918-0.946 4.571-0.946v-0.587c-1.729 0-3.335 0.332-4.815 0.998l0.244 0.535zM370.851 1.82h0.294v-0.294h-0.294v0.294zM370.851 31.413v0.294h0.294v-0.294h-0.294zM364.001 31.413h-0.294v0.294h0.294v-0.294zM364.001 7.316h0.294v-0.294h-0.294v0.294zM358.083 7.316h-0.294v0.294h0.294v-0.294zM358.083 1.82v-0.294h-0.294v0.294h0.294zM370.557 1.82v29.593h0.587v-29.593h-0.587zM370.851 31.119h-6.849v0.587h6.849v-0.587zM364.295 31.413v-24.097h-0.587v24.097h0.587zM364.001 7.022h-5.919v0.587h5.919v-0.587zM358.377 7.316v-5.496h-0.587v5.496h0.587zM358.083 2.114h12.768v-0.587h-12.768v0.587zM396.239 15.856l-0.15-0.252-0.458 0.275 0.479 0.239 0.129-0.263zM399.58 18.73l-0.247 0.159v0.002l0.003 0.002 0.244-0.163zM399.199 27.65l0.235 0.179v-0.002l-0.235-0.177zM394.804 30.821l0.106 0.274 0.003-0.001-0.109-0.272zM381.698 30.821l-0.112 0.272 0.006 0.002 0.106-0.274zM377.345 27.65l-0.238 0.174 0.003 0.003v0.003l0.235-0.179zM376.963 18.73l-0.244-0.163-0.003 0.002v0.002l0.247 0.159zM380.304 15.856l0.132 0.262 0.467-0.238-0.446-0.274-0.153 0.25zM377.767 13.319l-0.255 0.145v0.003l0.255-0.148zM382.332 2.37l0.106 0.273 0.006-0.002-0.112-0.272zM394.211 2.37l-0.112 0.272 0.003 0.001 0.003 0.001 0.106-0.274zM398.271 5.287v0zM398.82 13.319l0.252 0.148 0.003-0.003-0.255-0.145zM384.91 7.358l0.182 0.23 0.003-0.001-0.185-0.229zM384.91 12.727v0zM391.633 7.358l-0.185 0.229 0.003 0.002 0.003 0.002 0.179-0.233zM392.308 25.748l0.179 0.232 0.003-0.001-0.182-0.232zM392.308 19.534l-0.179 0.233 0.003 0.002 0.176-0.235zM384.235 19.534v0zM384.235 25.748v0zM396.11 16.118c1.424 0.713 2.495 1.638 3.224 2.771l0.493-0.318c-0.793-1.235-1.949-2.226-3.455-2.979l-0.261 0.525zM399.337 18.893c0.755 1.131 1.133 2.44 1.133 3.938h0.587c0-1.603-0.408-3.027-1.233-4.264l-0.487 0.326zM400.47 22.831c0 1.772-0.502 3.316-1.503 4.642l0.467 0.354c1.083-1.435 1.623-3.105 1.623-4.996h-0.587zM398.967 27.471c-1.004 1.304-2.425 2.332-4.274 3.077l0.22 0.545c1.929-0.777 3.441-1.862 4.521-3.264l-0.467-0.358zM394.698 30.547c-1.85 0.717-3.996 1.079-6.447 1.079v0.587c2.507 0 4.73-0.37 6.658-1.119l-0.211-0.547zM388.251 31.627c-2.451 0-4.6-0.362-6.447-1.079l-0.211 0.547c1.929 0.749 4.148 1.119 6.658 1.119v-0.587zM381.81 30.549c-1.823-0.745-3.229-1.773-4.233-3.078l-0.467 0.358c1.080 1.401 2.578 2.486 4.477 3.263l0.223-0.544zM377.579 27.477c-0.975-1.327-1.465-2.872-1.465-4.646h-0.587c0 1.89 0.526 3.558 1.579 4.993l0.473-0.348zM376.115 22.831c0-1.5 0.367-2.81 1.095-3.942l-0.493-0.318c-0.796 1.236-1.189 2.659-1.189 4.259h0.587zM377.207 18.893c0.757-1.137 1.832-2.063 3.229-2.776l-0.267-0.523c-1.477 0.752-2.63 1.743-3.45 2.973l0.487 0.326zM380.457 15.606c-1.063-0.654-1.873-1.466-2.437-2.434l-0.508 0.296c0.619 1.060 1.5 1.939 2.636 2.639l0.308-0.5zM378.023 13.174c-0.567-0.994-0.851-2.127-0.851-3.406h-0.587c0 1.37 0.308 2.605 0.928 3.696l0.511-0.29zM377.171 9.768c0-1.661 0.461-3.091 1.38-4.304l-0.47-0.354c-1.001 1.323-1.497 2.881-1.497 4.658h0.587zM378.551 5.464c0.919-1.219 2.211-2.161 3.887-2.821l-0.214-0.546c-1.761 0.693-3.147 1.695-4.142 3.013l0.47 0.354zM382.444 2.641c1.676-0.688 3.611-1.035 5.807-1.035v-0.587c-2.258 0-4.269 0.357-6.030 1.079l0.223 0.543zM388.251 1.606c2.222 0 4.172 0.348 5.848 1.035l0.223-0.543c-1.761-0.722-3.787-1.079-6.071-1.079v0.587zM394.105 2.644c1.706 0.66 3.009 1.603 3.931 2.82l0.467-0.354c-0.995-1.319-2.396-2.321-4.186-3.014l-0.211 0.548zM398.036 5.464c0.916 1.213 1.377 2.643 1.377 4.304h0.587c0-1.778-0.496-3.335-1.497-4.658l-0.467 0.354zM399.413 9.768c0 1.279-0.285 2.412-0.848 3.406l0.511 0.29c0.619-1.091 0.925-2.326 0.925-3.696h-0.587zM398.564 13.171c-0.564 0.967-1.386 1.779-2.475 2.433l0.302 0.503c1.163-0.699 2.061-1.578 2.68-2.64l-0.508-0.296zM388.251 6.050c-1.43 0-2.613 0.351-3.523 1.079l0.367 0.458c0.781-0.624 1.823-0.95 3.156-0.95v-0.587zM384.728 7.128c-0.895 0.71-1.336 1.701-1.336 2.936h0.587c0-1.077 0.376-1.89 1.113-2.476l-0.364-0.46zM383.392 10.064c0 1.209 0.443 2.184 1.336 2.893l0.364-0.46c-0.74-0.588-1.113-1.387-1.113-2.433h-0.587zM384.728 12.957c0.884 0.702 2.070 1.036 3.523 1.036v-0.587c-1.368 0-2.407-0.314-3.159-0.909l-0.364 0.46zM388.251 13.993c1.453 0 2.648-0.334 3.561-1.033l-0.358-0.466c-0.781 0.598-1.838 0.912-3.203 0.912v0.587zM391.812 12.96c0.922-0.707 1.383-1.684 1.383-2.896h-0.587c0 1.042-0.385 1.841-1.154 2.43l0.358 0.466zM393.195 10.064c0-1.238-0.458-2.23-1.383-2.939l-0.358 0.466c0.766 0.587 1.154 1.4 1.154 2.473h0.587zM391.815 7.129c-0.91-0.729-2.108-1.079-3.564-1.079v0.587c1.362 0 2.419 0.327 3.197 0.95l0.367-0.458zM388.251 27.183c1.759 0 3.182-0.389 4.236-1.203l-0.358-0.465c-0.919 0.709-2.199 1.080-3.878 1.080v0.587zM392.49 25.98c1.086-0.845 1.635-1.974 1.635-3.36h-0.587c0 1.207-0.467 2.164-1.409 2.897l0.361 0.463zM394.125 22.62c0-1.386-0.549-2.503-1.641-3.321l-0.352 0.47c0.939 0.704 1.406 1.645 1.406 2.851h0.587zM392.487 19.301c-1.054-0.813-2.478-1.203-4.236-1.203v0.587c1.679 0 2.959 0.372 3.878 1.080l0.358-0.465zM388.251 18.099c-1.735 0-3.144 0.39-4.195 1.203l0.358 0.465c0.919-0.709 2.187-1.080 3.837-1.080v-0.587zM384.056 19.301c-1.063 0.819-1.594 1.935-1.594 3.319h0.587c0-1.21 0.455-2.151 1.365-2.854l-0.358-0.465zM382.462 22.62c0 1.409 0.528 2.54 1.594 3.361l0.358-0.465c-0.91-0.701-1.365-1.656-1.365-2.896h-0.587zM384.056 25.98c1.051 0.813 2.46 1.203 4.195 1.203v-0.587c-1.65 0-2.918-0.371-3.837-1.080l-0.358 0.465zM407.407 31.075l-0.073 0.284v0.001l0.003 0.001 0.070-0.285zM403.094 29.299l-0.264-0.124-0.109 0.23 0.211 0.139 0.161-0.245zM405.293 24.564l0.159-0.247-0.282-0.181-0.144 0.305 0.267 0.124zM408.972 26.171l-0.082 0.282 0.006 0.001 0.076-0.283zM416.244 23.296v0zM412.735 22.577l-0.044 0.29 0.003 0.001 0.003 0 0.038-0.291zM408.126 21.605v0zM404.956 19.66l-0.214 0.201 0.003 0.002v0.002l0.211-0.204zM404.87 11.882l-0.235-0.176v0.001l0.235 0.175zM408.508 9.261l-0.106-0.274-0.003 0.001 0.109 0.273zM418.948 8.88l-0.065 0.286 0.003 0.001 0.003 0.001 0.059-0.287zM422.923 10.318l0.267 0.125 0.112-0.241-0.229-0.136-0.15 0.252zM420.724 15.010l-0.144 0.256 0.276 0.155 0.135-0.287-0.267-0.125zM411 13.911v0zM411.086 16.912v0zM414.72 17.716l0.050-0.29-0.006-0.001-0.044 0.29zM419.288 18.73l-0.088 0.28 0.003 0.001 0.003 0.001 0.082-0.282zM422.374 20.633v0zM422.415 28.284v0zM418.695 30.863l0.103 0.275v-0.001l-0.103-0.274zM412.947 31.457c-1.867 0-3.687-0.223-5.469-0.668l-0.141 0.57c1.826 0.457 3.696 0.685 5.61 0.685v-0.587zM407.483 30.791c-1.785-0.474-3.191-1.056-4.228-1.737l-0.323 0.49c1.107 0.728 2.578 1.33 4.401 1.814l0.15-0.567zM403.361 29.423l2.199-4.735-0.534-0.247-2.196 4.735 0.531 0.247zM405.135 24.812c1.045 0.666 2.296 1.212 3.755 1.641l0.164-0.563c-1.415-0.417-2.616-0.942-3.602-1.572l-0.317 0.495zM408.895 26.454c1.459 0.401 2.895 0.602 4.304 0.602v-0.587c-1.353 0-2.736-0.193-4.151-0.581l-0.153 0.566zM413.199 27.056c1.409 0 2.51-0.173 3.27-0.548 0.382-0.19 0.687-0.436 0.895-0.746 0.211-0.313 0.314-0.673 0.314-1.070h-0.587c0 0.293-0.073 0.537-0.211 0.742-0.141 0.207-0.358 0.393-0.672 0.548-0.637 0.315-1.629 0.487-3.009 0.487v0.587zM417.679 24.691c0-0.386-0.117-0.732-0.352-1.021-0.235-0.285-0.57-0.497-0.981-0.65l-0.205 0.551c0.349 0.129 0.584 0.29 0.731 0.471 0.144 0.176 0.22 0.387 0.22 0.649h0.587zM416.346 23.021c-0.796-0.294-1.993-0.537-3.576-0.735l-0.073 0.583c1.574 0.197 2.716 0.433 3.444 0.703l0.205-0.551zM412.779 22.287c-1.852-0.281-3.373-0.602-4.568-0.963l-0.17 0.562c1.23 0.372 2.78 0.699 4.65 0.982l0.088-0.581zM408.211 21.324c-1.163-0.352-2.178-0.973-3.044-1.868l-0.423 0.409c0.937 0.965 2.037 1.64 3.297 2.021l0.17-0.562zM405.17 19.459c-0.807-0.859-1.23-2.102-1.23-3.773h-0.587c0 1.767 0.449 3.174 1.389 4.175l0.429-0.402zM403.94 15.686c0-1.378 0.39-2.584 1.166-3.63l-0.47-0.35c-0.857 1.152-1.283 2.483-1.283 3.98h0.587zM405.105 12.058c0.807-1.076 1.97-1.92 3.508-2.524l-0.214-0.546c-1.618 0.636-2.88 1.539-3.764 2.718l0.47 0.352zM408.614 9.534c1.565-0.604 3.414-0.91 5.557-0.91v-0.587c-2.196 0-4.122 0.314-5.769 0.95l0.211 0.548zM414.171 8.624c1.585 0 3.156 0.181 4.712 0.542l0.132-0.572c-1.6-0.371-3.215-0.557-4.844-0.557v0.587zM418.889 9.167c1.585 0.334 2.877 0.804 3.884 1.402l0.299-0.505c-1.077-0.641-2.437-1.13-4.063-1.472l-0.12 0.575zM422.655 10.193l-2.196 4.693 0.531 0.249 2.199-4.693-0.534-0.249zM420.868 14.754c-2.046-1.153-4.28-1.729-6.697-1.729v0.587c2.319 0 4.454 0.551 6.409 1.653l0.288-0.512zM414.171 13.025c-1.427 0-2.542 0.198-3.315 0.629l0.288 0.512c0.64-0.358 1.635-0.554 3.027-0.554v-0.587zM410.856 13.655c-0.763 0.428-1.207 1.019-1.207 1.778h0.587c0-0.481 0.264-0.905 0.907-1.266l-0.288-0.512zM409.65 15.433c0 0.408 0.112 0.773 0.346 1.078 0.232 0.302 0.57 0.523 0.986 0.677l0.205-0.551c-0.346-0.127-0.578-0.294-0.725-0.485-0.147-0.189-0.226-0.423-0.226-0.719h-0.587zM410.983 17.188c0.793 0.293 2.029 0.564 3.693 0.818l0.088-0.58c-1.659-0.253-2.845-0.517-3.576-0.788l-0.205 0.551zM414.673 18.005c1.852 0.309 3.361 0.644 4.527 1.005l0.173-0.561c-1.201-0.372-2.736-0.713-4.603-1.024l-0.097 0.579zM419.206 19.013c1.13 0.323 2.114 0.928 2.953 1.821l0.429-0.402c-0.91-0.967-1.985-1.63-3.221-1.984l-0.161 0.565zM422.159 20.834c0.807 0.861 1.23 2.077 1.23 3.688h0.587c0-1.714-0.452-3.091-1.389-4.090l-0.429 0.402zM423.389 24.522c0 1.346-0.402 2.537-1.207 3.584l0.464 0.358c0.887-1.151 1.33-2.469 1.33-3.942h-0.587zM422.183 28.105c-0.804 1.046-1.996 1.878-3.59 2.483l0.205 0.549c1.673-0.634 2.965-1.522 3.849-2.674l-0.464-0.358zM418.592 30.588c-1.565 0.577-3.444 0.87-5.646 0.87v0.587c2.249 0 4.204-0.299 5.851-0.906l-0.205-0.551z"></path>
</symbol>
<symbol id="logo" viewBox="0 0 133 32">
<path fill="#fff" style="fill: var(--color1, #fff)" d="M37.47 4.093l-5.431 27.552h-7.203l2.834-14.524-9.171 11.808h-3.424l-4.999-11.808-2.913 14.524h-7.163l5.51-27.552h6.337l6.455 15.941 12.516-15.941h6.652z"></path>
<path fill="#fff" style="fill: var(--color1, #fff)" d="M63.883 10.312l-4.251 21.333h-7.085l0.433-2.204c-0.918 0.866-1.955 1.509-3.109 1.929-1.128 0.42-2.296 0.63-3.503 0.63-2.335 0-4.198-0.63-5.589-1.889-1.364-1.26-2.047-3.057-2.047-5.392 0-0.866 0.092-1.745 0.276-2.637l2.361-11.769h7.478l-2.204 11.060c-0.105 0.499-0.157 0.984-0.157 1.456 0 1.863 0.958 2.795 2.873 2.795 1.286 0 2.348-0.394 3.188-1.181 0.84-0.813 1.417-2.007 1.732-3.582l2.125-10.549h7.478z"></path>
<path fill="#fff" style="fill: var(--color1, #fff)" d="M72.793 32c-1.837 0-3.608-0.197-5.313-0.59-1.679-0.394-2.991-0.892-3.936-1.496l2.716-5.235c0.971 0.604 2.125 1.089 3.464 1.456 1.338 0.341 2.65 0.512 3.936 0.512 2.283 0 3.424-0.512 3.424-1.535 0-0.42-0.276-0.722-0.827-0.905-0.525-0.21-1.377-0.407-2.558-0.59-1.574-0.289-2.873-0.59-3.897-0.905-0.997-0.341-1.876-0.905-2.637-1.692s-1.141-1.889-1.141-3.306c0-2.467 1.050-4.369 3.149-5.707 2.125-1.364 4.867-2.047 8.226-2.047 1.522 0 2.991 0.157 4.408 0.472 1.417 0.289 2.65 0.695 3.7 1.22l-2.637 5.235c-1.784-1.076-3.897-1.614-6.337-1.614-1.155 0-2.020 0.157-2.598 0.472-0.551 0.289-0.827 0.669-0.827 1.142 0 0.42 0.262 0.735 0.787 0.945 0.551 0.184 1.443 0.394 2.676 0.63 1.522 0.262 2.781 0.564 3.778 0.905 1.023 0.341 1.902 0.905 2.637 1.692 0.761 0.787 1.141 1.863 1.141 3.228 0 2.467-1.063 4.369-3.188 5.707s-4.841 2.007-8.147 2.007z"></path>
<path fill="#fff" style="fill: var(--color1, #fff)" d="M90.224 10.312h7.439l-4.251 21.333h-7.439l4.251-21.333zM94.987 7.951c-1.286 0-2.322-0.354-3.109-1.063s-1.181-1.588-1.181-2.637c0-1.233 0.433-2.244 1.299-3.031 0.892-0.813 2.060-1.22 3.503-1.22 1.312 0 2.362 0.341 3.149 1.023 0.787 0.656 1.181 1.509 1.181 2.558 0 1.286-0.446 2.335-1.338 3.149s-2.060 1.22-3.503 1.22z"></path>
<path fill="#fff" style="fill: var(--color1, #fff)" d="M115.631 19.759l7.164 11.887h-8.737l-4.369-7.282-3.070 2.677-0.905 4.605h-7.478l5.825-29.205h7.478l-3.030 15.154 8.62-7.282h9.445l-10.942 9.447z"></path>
<path fill="#fff" style="fill: var(--color1, #fff)" d="M128.571 32c-1.233 0-2.256-0.38-3.070-1.141-0.787-0.787-1.181-1.771-1.181-2.952 0-1.417 0.46-2.558 1.378-3.424 0.944-0.892 2.085-1.338 3.424-1.338 1.26 0 2.27 0.38 3.030 1.141 0.787 0.735 1.181 1.719 1.181 2.952 0 1.391-0.473 2.532-1.417 3.424-0.918 0.892-2.034 1.338-3.346 1.338z"></path>
</symbol>
<symbol id="linkedin" viewBox="0 0 32 32">
<path fill="#fff" style="fill: var(--color1, #fff)" d="M24.447 24.452h-3.553v-5.569c0-1.328-0.027-3.037-1.853-3.037-1.852 0-2.135 1.445-2.135 2.94v5.667h-3.555v-11.452h3.413v1.56h0.047c0.477-0.899 1.637-1.849 3.371-1.849 3.6 0 4.267 2.371 4.267 5.455v6.287h-0.001zM9.337 11.433c-0.271 0-0.54-0.053-0.791-0.157s-0.478-0.256-0.67-0.448c-0.192-0.192-0.344-0.42-0.447-0.67s-0.157-0.519-0.156-0.791c0-0.408 0.122-0.807 0.349-1.146s0.55-0.604 0.927-0.76c0.377-0.156 0.792-0.197 1.193-0.117s0.768 0.277 1.056 0.566c0.288 0.289 0.485 0.657 0.564 1.057s0.038 0.815-0.118 1.192c-0.156 0.377-0.421 0.699-0.761 0.926s-0.739 0.347-1.147 0.347h0.001zM11.119 24.452h-3.564v-11.452h3.565v11.452h-0.001zM26.227 4h-20.455c-0.981 0-1.772 0.773-1.772 1.729v20.541c0 0.956 0.792 1.729 1.771 1.729h20.451c0.979 0 1.779-0.773 1.779-1.729v-20.541c0-0.956-0.8-1.729-1.779-1.729h0.005z"></path>
</symbol>
<symbol id="twitter" viewBox="0 0 32 32">
<path fill="#fff" style="fill: var(--color1, #fff)" d="M29.549 7.542c-1.018 0.45-2.097 0.746-3.203 0.877 1.165-0.697 2.037-1.793 2.453-3.085-1.093 0.651-2.292 1.107-3.541 1.353-0.839-0.898-1.952-1.493-3.164-1.694s-2.457 0.005-3.541 0.585c-1.084 0.58-1.945 1.502-2.451 2.622s-0.627 2.376-0.345 3.572c-2.217-0.111-4.386-0.687-6.366-1.691s-3.727-2.413-5.127-4.136c-0.496 0.851-0.756 1.819-0.755 2.804 0 1.933 0.984 3.641 2.48 4.641-0.885-0.028-1.751-0.267-2.525-0.697v0.069c0 1.288 0.446 2.535 1.261 3.532s1.95 1.681 3.212 1.936c-0.822 0.223-1.684 0.256-2.52 0.096 0.356 1.108 1.049 2.078 1.983 2.772s2.062 1.080 3.226 1.101c-1.157 0.908-2.481 1.58-3.897 1.976s-2.897 0.509-4.357 0.333c2.549 1.639 5.516 2.509 8.547 2.507 10.257 0 15.867-8.497 15.867-15.867 0-0.24-0.007-0.483-0.017-0.72 1.092-0.789 2.034-1.767 2.783-2.887l-0.001-0.001z"></path>
</symbol>
<symbol id="facebook" viewBox="0 0 32 32">
<path fill="#fff" style="fill: var(--color1, #fff)" d="M18.667 18h3.333l1.333-5.333h-4.667v-2.667c0-1.373 0-2.667 2.667-2.667h2v-4.48c-0.435-0.057-2.076-0.187-3.809-0.187-3.62 0-6.191 2.209-6.191 6.267v3.733h-4v5.333h4v11.333h5.333v-11.333z"></path>
</symbol>
<symbol id="instagram" viewBox="0 0 32 32">
<path fill="#fff" style="fill: var(--color1, #fff)" d="M16 2.667c3.623 0 4.075 0.013 5.496 0.080 1.42 0.067 2.387 0.289 3.237 0.62 0.88 0.339 1.621 0.797 2.363 1.537 0.678 0.667 1.203 1.473 1.537 2.363 0.329 0.849 0.553 1.817 0.62 3.237 0.063 1.421 0.080 1.873 0.080 5.496s-0.013 4.075-0.080 5.496c-0.067 1.42-0.291 2.387-0.62 3.237-0.334 0.89-0.859 1.697-1.537 2.363-0.667 0.678-1.473 1.202-2.363 1.537-0.849 0.329-1.817 0.553-3.237 0.62-1.421 0.063-1.873 0.080-5.496 0.080s-4.075-0.013-5.496-0.080c-1.42-0.067-2.387-0.291-3.237-0.62-0.89-0.334-1.697-0.859-2.363-1.537-0.678-0.666-1.203-1.473-1.537-2.363-0.331-0.849-0.553-1.817-0.62-3.237-0.063-1.421-0.080-1.873-0.080-5.496s0.013-4.075 0.080-5.496c0.067-1.421 0.289-2.387 0.62-3.237 0.334-0.89 0.858-1.697 1.537-2.363 0.666-0.678 1.473-1.203 2.363-1.537 0.851-0.331 1.816-0.553 3.237-0.62 1.421-0.063 1.873-0.080 5.496-0.080zM16 9.333c-1.768 0-3.464 0.702-4.714 1.953s-1.953 2.946-1.953 4.714c0 1.768 0.702 3.464 1.953 4.714s2.946 1.953 4.714 1.953c1.768 0 3.464-0.702 4.714-1.953s1.953-2.946 1.953-4.714c0-1.768-0.702-3.464-1.953-4.714s-2.946-1.953-4.714-1.953zM24.667 9c0-0.442-0.176-0.866-0.488-1.178s-0.737-0.488-1.179-0.488-0.866 0.176-1.179 0.488c-0.313 0.313-0.488 0.736-0.488 1.178s0.176 0.866 0.488 1.178c0.313 0.313 0.737 0.488 1.179 0.488s0.866-0.176 1.179-0.488c0.313-0.313 0.488-0.736 0.488-1.178zM16 12c1.061 0 2.078 0.421 2.828 1.172s1.172 1.768 1.172 2.828-0.421 2.078-1.172 2.828c-0.75 0.75-1.768 1.172-2.828 1.172s-2.078-0.421-2.828-1.172c-0.75-0.75-1.172-1.768-1.172-2.828s0.421-2.078 1.172-2.828c0.75-0.75 1.768-1.172 2.828-1.172z"></path>
</symbol>
<symbol id="trumpet" viewBox="0 0 32 32">
<path style="" d="M31.591 9.839l-9.429-9.43c-0.385-0.385-0.959-0.511-1.47-0.322s-0.865 0.658-0.907 1.201l-0.746 9.701-4.807 4.807-1.371-1.371c-0.545-0.545-1.428-0.545-1.973 0s-0.545 1.428 0 1.972l1.371 1.371-2.742 2.742-1.371-1.371c-0.545-0.545-1.428-0.545-1.973 0s-0.545 1.428 0 1.972l1.371 1.371-4.971 4.971-0.192-0.192c-0.545-0.545-1.428-0.545-1.972 0s-0.545 1.428 0 1.972l2.357 2.357c0.272 0.272 0.629 0.408 0.986 0.408s0.714-0.136 0.986-0.408c0.545-0.545 0.545-1.428 0-1.973l-0.192-0.192 2.907-2.907c0.234 0.617 0.597 1.184 1.078 1.664 0.893 0.893 2.081 1.385 3.344 1.385s2.45-0.492 3.343-1.385l4.715-4.715c1.844-1.844 1.844-4.844-0-6.687-0.481-0.481-1.047-0.844-1.664-1.078l2.743-2.743 9.701-0.746c0.543-0.042 1.012-0.396 1.201-0.907s0.063-1.085-0.322-1.47zM17.96 21.497l-4.715 4.715c-0.366 0.366-0.853 0.568-1.371 0.568s-1.005-0.202-1.371-0.568-0.568-0.853-0.568-1.371c0-0.518 0.202-1.005 0.568-1.371l4.717-4.716c0.366-0.365 0.852-0.566 1.369-0.566s1.005 0.202 1.371 0.568c0.756 0.756 0.756 1.986-0 2.742z"></path>
</symbol>
<symbol id="saxophone" viewBox="0 0 32 32">
<path  style="" d="M30.125 11.313h-9.437c-1.036 0-1.875 0.839-1.875 1.875s0.839 1.875 1.875 1.875h9.437c1.036 0 1.875-0.84 1.875-1.875s-0.839-1.875-1.875-1.875z"></path>
<path style="" d="M30.125 16.938h-9.437v2.736c0 1.593-1.294 2.889-2.885 2.889-1.37 0-2.56-0.974-2.825-2.296l-3.020-16.199c-0.555-2.775-3.331-4.653-6.264-3.901-2.211 0.569-3.755 2.652-3.755 5.068v4.203h-1c-0.518 0-0.938 0.419-0.938 0.938s0.419 0.938 0.938 0.938h3.812c0.518 0 0.938-0.42 0.938-0.938v-3.812c0-0.518 0.42-0.938 0.938-0.938s0.938 0.42 0.938 0.938v6.625h-0.938c-0.518 0-0.938 0.419-0.938 0.938s0.419 0.938 0.938 0.938h0.938v1.875h-0.938c-0.518 0-0.938 0.419-0.938 0.938s0.419 0.938 0.938 0.938h0.938v1.875h-0.938c-0.518 0-0.938 0.419-0.938 0.938s0.419 0.938 0.938 0.938h1.106c0.894 5.318 5.508 9.437 11.081 9.437h0.016l0.329-0.006c6.013-0.179 10.967-5.497 10.967-11.778l-0-3.279z"></path>
</symbol>
<symbol id="guitar" viewBox="0 0 32 32 ">
<path  style="" d="M19.107 10.225l1.31-1.31 2.705 2.705-1.31 1.31-2.705-2.705z"></path>
<path  style="" d="M16.488 12.845l1.31-1.31 2.705 2.705-1.31 1.31-2.705-2.705z"></path>
<path style="" d="M23.57 4.152c-0.15 0.071-0.216 0.246-0.152 0.399l0.012 0.029 0.314 1.014c-0.017 0.015-0.034 0.030-0.050 0.046l-1.965 1.965 2.706 2.705 1.965-1.965c0.022-0.022 0.043-0.045 0.063-0.068l1.016 0.315c0.145 0.045 0.305-0.025 0.37-0.162 1.275-2.679 3.86-3.921 3.973-3.974 0.076-0.035 0.135-0.1 0.162-0.179s0.021-0.167-0.017-0.241l-1.301-2.558c-0.015-0.029-0.034-0.055-0.057-0.078s-0.049-0.042-0.078-0.057l-2.544-1.296c-0.064-0.040-0.141-0.054-0.216-0.041-0.099 0.018-0.184 0.083-0.226 0.174-0.012 0.027-1.27 2.685-3.974 3.973z"></path>
<path  style="" d="M16.704 24.19c-0.035-0.562 0.327-1.063 0.86-1.193 0.939-0.228 1.797-0.714 2.481-1.404 0.486-0.491 0.864-1.063 1.124-1.702 0.141-0.345 0.060-0.741-0.203-1.004-0.004-0.004-0.008-0.008-0.012-0.012-0.273-0.263-0.678-0.333-1.023-0.178-0.942 0.424-2.213 0.192-3.332-0.551l1.288-1.288-2.706-2.705-0.816 0.816c-0.18-0.897-0.019-1.739 0.526-2.284 0.157-0.157 0.341-0.285 0.548-0.382 0.358-0.168 0.57-0.545 0.528-0.938s-0.33-0.716-0.716-0.804c-1.767-0.401-3.584 0.115-4.861 1.383-0.691 0.686-1.177 1.547-1.404 2.49-0.128 0.532-0.63 0.894-1.193 0.861-2.141-0.128-4.232 0.662-5.738 2.168-2.74 2.74-2.74 7.199 0 9.94l2.543 2.543c2.74 2.74 7.199 2.74 9.94 0 1.511-1.511 2.3-3.608 2.167-5.755zM9.47 24.482l-1.952-1.952c-0.362-0.362-0.362-0.948 0-1.31s0.948-0.362 1.31 0l1.952 1.952c0.362 0.362 0.362 0.948 0 1.31s-0.948 0.362-1.31 0zM12.398 21.554l-1.952-1.952c-0.362-0.362-0.362-0.948 0-1.31s0.948-0.362 1.31 0l1.952 1.952c0.362 0.362 0.362 0.948 0 1.31s-0.948 0.362-1.31 0z"></path>
</symbol>
<symbol id="bagpipes" viewBox="0 0 32 32">
<path style="" d="M4.688 5.688h-3.75c-0.518 0-0.938 0.419-0.938 0.938s0.419 0.938 0.938 0.938h0.938v3.75h1.875v-3.75h0.938c0.518 0 0.938-0.419 0.938-0.938s-0.419-0.938-0.938-0.938z"></path>
<path style="" d="M29.188 11.312h-0.938v-3.923c1.089-0.388 1.875-1.419 1.875-2.64 0-1.551-1.262-2.813-2.812-2.813s-2.812 1.262-2.812 2.813c0 1.221 0.786 2.252 1.875 2.64v3.923h-0.938c-0.518 0-0.938 0.419-0.938 0.938s0.419 0.938 0.938 0.938h0.938v1.875h1.875v-1.875h0.938c0.518 0 0.937-0.419 0.937-0.938s-0.419-0.938-0.937-0.938z"></path>
<path  style="" d="M30.125 16.938h-23.562c-1.034 0-1.875-0.841-1.875-1.875v-0.938c0-0.518-0.419-0.937-0.938-0.937h-1.875c-0.518 0-0.938 0.419-0.938 0.937v0.938c0 3.102 2.523 5.625 5.625 5.625h3.106c0.894 5.319 5.508 9.375 11.081 9.375 6.213 0 11.25-5.037 11.25-11.25 0-1.036-0.839-1.875-1.875-1.875z"></path>
<path  style="" d="M21.688 11.312h-0.938v-3.923c1.089-0.388 1.875-1.419 1.875-2.64 0-1.551-1.262-2.813-2.812-2.813s-2.812 1.262-2.812 2.813c0 1.221 0.786 2.252 1.875 2.64v3.923h-0.938c-0.518 0-0.938 0.419-0.938 0.938s0.419 0.938 0.938 0.938h0.938v1.875h1.875v-1.875h0.938c0.518 0 0.937-0.419 0.937-0.938s-0.419-0.938-0.937-0.938z"></path>
<path style="" d="M14.188 11.312h-0.938v-3.923c1.089-0.388 1.875-1.419 1.875-2.64 0-1.551-1.262-2.813-2.812-2.813s-2.812 1.262-2.812 2.813c0 1.221 0.786 2.252 1.875 2.64v3.923h-0.938c-0.518 0-0.938 0.419-0.938 0.938s0.419 0.938 0.938 0.938h0.938v1.875h1.875v-1.875h0.938c0.518 0 0.937-0.419 0.937-0.938s-0.419-0.938-0.937-0.938z"></path>
</symbol>
<symbol id="mixer" viewBox="0 0 32 32">
<path  style="" d="M29.188 5.221h-26.375c-1.551 0-2.813 1.262-2.813 2.813v15.932c0 1.551 1.262 2.812 2.813 2.812h26.375c1.551 0 2.812-1.262 2.812-2.812v-15.932c0-1.551-1.262-2.813-2.812-2.813zM10.774 23.157c-3.946 0-7.157-3.211-7.157-7.157s3.211-7.157 7.157-7.157c3.946 0 7.157 3.211 7.157 7.157s-3.211 7.157-7.157 7.157zM21.554 13.333v7.963c0 0.518-0.42 0.938-0.938 0.938s-0.938-0.42-0.938-0.938v-7.963c-0.337-0.142-0.573-0.476-0.573-0.864s0.236-0.722 0.573-0.864v-0.695c0-0.518 0.42-0.938 0.938-0.938s0.938 0.42 0.938 0.938v0.695c0.337 0.142 0.573 0.476 0.573 0.864s-0.236 0.722-0.573 0.864zM24.958 20.145v1.152c0 0.518-0.42 0.938-0.937 0.938s-0.938-0.42-0.938-0.938v-1.152c-0.337-0.142-0.573-0.475-0.573-0.864s0.236-0.722 0.573-0.864v-7.506c0-0.518 0.42-0.938 0.938-0.938s0.937 0.42 0.937 0.938v7.506c0.337 0.142 0.573 0.476 0.573 0.864s-0.236 0.722-0.573 0.864zM28.361 13.333v7.963c0 0.518-0.42 0.938-0.938 0.938s-0.938-0.42-0.938-0.938v-7.963c-0.337-0.142-0.573-0.476-0.573-0.864s0.236-0.722 0.573-0.864v-0.695c0-0.518 0.42-0.938 0.938-0.938s0.938 0.42 0.938 0.938v0.695c0.337 0.142 0.573 0.476 0.573 0.864s-0.236 0.722-0.573 0.864z"></path>
<path style="" d="M10.774 13.294c-1.492 0-2.706 1.214-2.706 2.706s1.214 2.706 2.706 2.706c1.492 0 2.706-1.214 2.706-2.706s-1.214-2.706-2.706-2.706zM10.774 16.831c-0.458 0-0.831-0.373-0.831-0.831s0.373-0.831 0.831-0.831c0.458 0 0.831 0.373 0.831 0.831s-0.373 0.831-0.831 0.831z"></path>
</symbol>
<symbol id="phone" viewBox="0 0 32 32">
<path fill="#ffa3a3" style="fill: var(--color6, #ffa3a3)" d="M28 21.893v4.715c0 0.338-0.128 0.663-0.358 0.91s-0.545 0.397-0.882 0.421c-0.583 0.040-1.059 0.061-1.427 0.061-11.783 0-21.333-9.551-21.333-21.333 0-0.368 0.020-0.844 0.061-1.427 0.024-0.337 0.174-0.652 0.421-0.882s0.572-0.358 0.91-0.358h4.715c0.165-0 0.325 0.061 0.448 0.172s0.2 0.263 0.216 0.428c0.031 0.307 0.059 0.551 0.085 0.736 0.265 1.849 0.808 3.648 1.611 5.335 0.127 0.267 0.044 0.585-0.196 0.756l-2.877 2.056c1.759 4.099 5.026 7.366 9.125 9.125l2.053-2.872c0.084-0.117 0.206-0.201 0.346-0.238s0.288-0.023 0.418 0.039c1.687 0.801 3.485 1.343 5.333 1.607 0.185 0.027 0.429 0.056 0.733 0.085 0.164 0.017 0.317 0.094 0.427 0.217s0.172 0.282 0.171 0.447h-0.001z"></path>
</symbol>
<symbol id="location" viewBox="0 0 32 32">
<path fill="#ffa3a3" style="fill: var(--color6, #ffa3a3)" d="M24.485 23.152l-8.485 8.485-8.485-8.485c-1.678-1.678-2.821-3.816-3.284-6.144s-0.225-4.741 0.683-6.933 2.446-4.067 4.42-5.385c1.973-1.319 4.293-2.022 6.667-2.022s4.693 0.704 6.667 2.022c1.973 1.319 3.511 3.193 4.42 5.385s1.146 4.605 0.683 6.933c-0.463 2.328-1.606 4.466-3.284 6.144zM16 17.333c0.707 0 1.385-0.281 1.886-0.781s0.781-1.178 0.781-1.886c0-0.707-0.281-1.386-0.781-1.886s-1.178-0.781-1.886-0.781c-0.707 0-1.385 0.281-1.886 0.781s-0.781 1.178-0.781 1.886c0 0.707 0.281 1.386 0.781 1.886s1.178 0.781 1.886 0.781z"></path>
</symbol>
<symbol id="email" viewBox="0 0 32 32">
<path fill="#ffa3a3" style="fill: var(--color6, #ffa3a3)" d="M4 4h24c0.354 0 0.693 0.14 0.943 0.391s0.391 0.589 0.391 0.943v21.333c0 0.354-0.141 0.693-0.391 0.943s-0.589 0.391-0.943 0.391h-24c-0.354 0-0.693-0.141-0.943-0.391s-0.391-0.589-0.391-0.943v-21.333c0-0.354 0.14-0.693 0.391-0.943s0.589-0.391 0.943-0.391zM16.080 15.577l-8.549-7.26-1.727 2.032 10.293 8.74 10.108-8.747-1.744-2.017-8.381 7.252z"></path>
</symbol>
<symbol id="arrow-down" viewBox="0 0 32 32">
<path fill="#fff" style="fill: var(--color1, #fff)" d="M31.055 6.622c1.26 1.363 1.26 3.573 0 4.937l-12.773 13.819c-1.26 1.363-3.303 1.363-4.563 0l-12.773-13.818c-0.629-0.681-0.945-1.577-0.945-2.468s0.316-1.787 0.945-2.468c1.26-1.363 3.303-1.363 4.563-0l7.265 7.859 3.227 3.582 3.227-3.582 7.265-7.86c1.26-1.363 3.303-1.363 4.563 0z"></path>
</symbol>
<symbol id="arrow-right" viewBox="0 0 32 32">
<path  style="" d="M21.563 14.667l-7.152-7.152 1.885-1.885 10.371 10.371-10.371 10.371-1.885-1.885 7.152-7.152h-16.229v-2.667h16.229z"></path>
</symbol>
<symbol id="arrow-prev" viewBox="0 0 32 32">
<path d="M14.602 16.147l6.522 6.522-1.863 1.863-8.386-8.386 8.386-8.386 1.863 1.863-6.522 6.522z"></path>
</symbol>
<symbol id="arrow-next" viewBox="0 0 32 32">
<path d="M17.399 16.146l-6.522-6.522 1.863-1.863 8.386 8.385-8.386 8.386-1.863-1.863 6.522-6.522z"></path>
</symbol>
<symbol id="play-hero" viewBox="0 0 32 32">
<path fill="#fff" style="fill: var(--color1, #fff)" d="M16 29.333c-7.364 0-13.333-5.969-13.333-13.333s5.969-13.333 13.333-13.333c7.364 0 13.333 5.969 13.333 13.333s-5.969 13.333-13.333 13.333zM16 26.667c2.829 0 5.542-1.124 7.542-3.124s3.124-4.713 3.124-7.542c0-2.829-1.124-5.542-3.124-7.543s-4.713-3.124-7.542-3.124-5.542 1.124-7.542 3.124c-2 2-3.124 4.714-3.124 7.543s1.124 5.542 3.124 7.542c2 2 4.713 3.124 7.542 3.124zM14.163 11.22l6.505 4.336c0.073 0.049 0.133 0.115 0.175 0.192s0.063 0.164 0.063 0.252c0 0.088-0.022 0.174-0.063 0.252s-0.102 0.143-0.175 0.192l-6.507 4.336c-0.080 0.053-0.173 0.084-0.27 0.088s-0.192-0.017-0.277-0.062c-0.085-0.045-0.156-0.113-0.206-0.195s-0.076-0.177-0.076-0.273v-8.675c0-0.096 0.027-0.191 0.076-0.274s0.121-0.15 0.206-0.196c0.085-0.045 0.181-0.067 0.277-0.062s0.19 0.036 0.27 0.089z"></path>
</symbol>
<symbol id="instagram-bg" viewBox="0 0 32 32">
<path fill="#fc5252" opacity="0.1" style="fill: var(--color4, #fc5252)" d="M16 2.667c3.623 0 4.075 0.013 5.496 0.080 1.42 0.067 2.387 0.289 3.237 0.62 0.88 0.339 1.621 0.797 2.363 1.537 0.678 0.667 1.203 1.473 1.537 2.363 0.329 0.849 0.553 1.817 0.62 3.237 0.063 1.421 0.080 1.873 0.080 5.496s-0.013 4.075-0.080 5.496c-0.067 1.42-0.291 2.387-0.62 3.237-0.334 0.89-0.858 1.697-1.537 2.363-0.667 0.678-1.473 1.202-2.363 1.537-0.849 0.329-1.817 0.553-3.237 0.62-1.421 0.063-1.873 0.080-5.496 0.080s-4.075-0.013-5.496-0.080c-1.42-0.067-2.387-0.291-3.237-0.62-0.89-0.334-1.697-0.859-2.363-1.537-0.678-0.666-1.203-1.473-1.537-2.363-0.331-0.849-0.553-1.817-0.62-3.237-0.063-1.421-0.080-1.873-0.080-5.496s0.013-4.075 0.080-5.496c0.067-1.421 0.289-2.387 0.62-3.237 0.334-0.89 0.858-1.697 1.537-2.363 0.666-0.678 1.473-1.203 2.363-1.537 0.851-0.331 1.816-0.553 3.237-0.62 1.421-0.063 1.873-0.080 5.496-0.080zM16 9.333c-1.768 0-3.464 0.702-4.714 1.953s-1.953 2.946-1.953 4.714 0.702 3.464 1.953 4.714c1.25 1.25 2.946 1.953 4.714 1.953s3.464-0.702 4.714-1.953c1.25-1.25 1.953-2.946 1.953-4.714s-0.702-3.464-1.953-4.714c-1.25-1.25-2.946-1.953-4.714-1.953zM24.667 9c0-0.442-0.176-0.866-0.488-1.178s-0.736-0.488-1.178-0.488c-0.442 0-0.866 0.176-1.178 0.488s-0.488 0.736-0.488 1.178c0 0.442 0.176 0.866 0.488 1.178s0.737 0.488 1.178 0.488c0.442 0 0.866-0.176 1.178-0.488s0.488-0.737 0.488-1.178zM16 12c1.061 0 2.078 0.421 2.828 1.172s1.172 1.768 1.172 2.828c0 1.061-0.421 2.078-1.172 2.828s-1.767 1.172-2.828 1.172c-1.061 0-2.078-0.421-2.828-1.172s-1.172-1.768-1.172-2.828c0-1.061 0.421-2.078 1.172-2.828s1.768-1.172 2.828-1.172z"></path>
</symbol>
<symbol id="quotes-right" viewBox="0 0 32 32">
<path fill="#381ddb" style="fill: var(--color7, #381ddb)" d="M25.664 8.003c1.373 1.459 2.111 3.095 2.111 5.747 0 4.667-3.276 8.849-8.040 10.917l-1.191-1.837c4.447-2.405 5.316-5.527 5.663-7.495-0.716 0.371-1.653 0.5-2.572 0.415-2.405-0.223-4.301-2.197-4.301-4.652 0-1.238 0.492-2.425 1.367-3.3s2.062-1.367 3.3-1.367c1.431 0 2.799 0.653 3.664 1.572zM12.33 8.003c1.373 1.459 2.111 3.095 2.111 5.747 0 4.667-3.276 8.849-8.040 10.917l-1.191-1.837c4.447-2.405 5.316-5.527 5.663-7.495-0.716 0.371-1.653 0.5-2.572 0.415-2.405-0.223-4.301-2.197-4.301-4.652 0-1.238 0.492-2.425 1.367-3.3s2.062-1.367 3.3-1.367c1.431 0 2.799 0.653 3.664 1.572z"></path>
</symbol>
<symbol id="quotes-left" viewBox="0 0 32 32">
<path fill="#381ddb" style="fill: var(--color7, #381ddb)" d="M6.111 23.095c-1.373-1.459-2.111-3.095-2.111-5.747 0-4.667 3.276-8.849 8.040-10.917l1.191 1.837c-4.447 2.405-5.316 5.527-5.663 7.495 0.716-0.371 1.653-0.5 2.572-0.415 2.405 0.223 4.301 2.197 4.301 4.652 0 1.238-0.492 2.425-1.367 3.3s-2.062 1.367-3.3 1.367c-1.431 0-2.799-0.653-3.664-1.572zM19.444 23.095c-1.373-1.459-2.111-3.095-2.111-5.747 0-4.667 3.276-8.849 8.040-10.917l1.191 1.837c-4.447 2.405-5.316 5.527-5.663 7.495 0.716-0.371 1.653-0.5 2.572-0.415 2.405 0.223 4.301 2.197 4.301 4.652 0 1.238-0.492 2.425-1.367 3.3s-2.062 1.367-3.3 1.367c-1.431 0-2.799-0.653-3.664-1.572z"></path>
</symbol>
<symbol id="chat" viewBox="0 0 32 32">
<path d="M13.333 4h5.333c2.829 0 5.542 1.124 7.543 3.124s3.124 4.713 3.124 7.542c0 2.829-1.124 5.542-3.124 7.543s-4.714 3.124-7.543 3.124v4.667c-6.667-2.667-16-6.667-16-15.333 0-2.829 1.124-5.542 3.124-7.542s4.713-3.124 7.542-3.124zM16 22.667h2.667c1.051 0 2.091-0.207 3.061-0.609s1.853-0.991 2.595-1.734c0.743-0.743 1.332-1.625 1.734-2.595s0.609-2.011 0.609-3.061-0.207-2.091-0.609-3.061c-0.402-0.971-0.991-1.853-1.734-2.595s-1.625-1.332-2.595-1.734-2.011-0.609-3.061-0.609h-5.333c-2.122 0-4.157 0.843-5.657 2.343s-2.343 3.535-2.343 5.657c0 4.813 3.283 7.955 10.667 11.307v-3.307z"></path>
</symbol>
<symbol id="heart" viewBox="0 0 32 32">
<path d="M16.001 6.039c3.132-2.812 7.972-2.719 10.989 0.304 3.016 3.024 3.12 7.84 0.315 10.981l-11.307 11.323-11.304-11.323c-2.805-3.141-2.7-7.965 0.315-10.981 3.020-3.019 7.851-3.12 10.992-0.304zM25.103 8.227c-2-2.003-5.227-2.084-7.32-0.204l-1.78 1.597-1.781-1.596c-2.1-1.883-5.32-1.8-7.325 0.205-1.987 1.987-2.087 5.167-0.256 7.268l9.36 9.375 9.36-9.373c1.832-2.103 1.732-5.279-0.257-7.272z"></path>
</symbol>
<symbol id="clock" viewBox="0 0 32 32">
<path d="M16 29.333c-7.364 0-13.333-5.969-13.333-13.333s5.969-13.333 13.333-13.333c7.364 0 13.333 5.969 13.333 13.333s-5.969 13.333-13.333 13.333zM16 26.667c2.829 0 5.542-1.124 7.543-3.124s3.124-4.714 3.124-7.543c0-2.829-1.124-5.542-3.124-7.542s-4.714-3.124-7.543-3.124c-2.829 0-5.542 1.124-7.542 3.124s-3.124 4.713-3.124 7.542c0 2.829 1.124 5.542 3.124 7.543s4.713 3.124 7.542 3.124zM17.333 16h5.333v2.667h-8v-9.333h2.667v6.667z"></path>
</symbol>
<symbol id="camera" viewBox="0 0 32 32">
<path fill="#fc5252" style="fill: var(--color4, #fc5252)" d="M21.333 5.333c0.354 0 0.693 0.14 0.943 0.391s0.391 0.589 0.391 0.943v5.6l6.951-4.867c0.1-0.070 0.217-0.111 0.339-0.119s0.243 0.018 0.352 0.074 0.199 0.141 0.262 0.246c0.063 0.104 0.097 0.224 0.097 0.346v16.107c0 0.122-0.033 0.242-0.097 0.346s-0.154 0.189-0.262 0.246-0.23 0.082-0.352 0.074c-0.122-0.008-0.239-0.049-0.339-0.119l-6.951-4.867v5.6c0 0.354-0.141 0.693-0.391 0.943s-0.589 0.391-0.943 0.391h-18.667c-0.354 0-0.693-0.141-0.943-0.391s-0.391-0.589-0.391-0.943v-18.667c0-0.354 0.14-0.693 0.391-0.943s0.589-0.391 0.943-0.391h18.667zM20 8h-16v16h16v-16zM9.867 11.772c0.101-0 0.201 0.028 0.287 0.083l5.807 3.696c0.075 0.048 0.137 0.115 0.181 0.193s0.065 0.167 0.065 0.256-0.023 0.178-0.065 0.256c-0.043 0.079-0.105 0.145-0.181 0.193l-5.807 3.697c-0.081 0.052-0.174 0.080-0.27 0.083s-0.191-0.020-0.275-0.066-0.154-0.115-0.202-0.197c-0.048-0.083-0.074-0.177-0.073-0.273v-7.387c0-0.295 0.24-0.533 0.533-0.533v-0.001zM28 11.787l-5.333 3.733v0.957l5.333 3.733v-8.424z"></path>
</symbol>
<symbol id="play" viewBox="0 0 32 32">
<path d="M16 29.333c-7.364 0-13.333-5.969-13.333-13.333s5.969-13.333 13.333-13.333c7.364 0 13.333 5.969 13.333 13.333s-5.969 13.333-13.333 13.333zM16 26.667c2.829 0 5.542-1.124 7.543-3.124s3.124-4.713 3.124-7.542c0-2.829-1.124-5.542-3.124-7.543s-4.714-3.124-7.543-3.124c-2.829 0-5.542 1.124-7.542 3.124s-3.124 4.713-3.124 7.543c0 2.829 1.124 5.542 3.124 7.542s4.713 3.124 7.542 3.124zM14.163 11.22l6.505 4.336c0.073 0.049 0.133 0.115 0.175 0.192s0.063 0.164 0.063 0.252c0 0.088-0.022 0.174-0.063 0.252s-0.101 0.143-0.175 0.192l-6.507 4.336c-0.080 0.053-0.173 0.084-0.269 0.088s-0.192-0.017-0.277-0.062c-0.085-0.045-0.156-0.113-0.205-0.195s-0.076-0.177-0.076-0.273v-8.675c0-0.096 0.027-0.191 0.076-0.274s0.121-0.15 0.206-0.196c0.085-0.045 0.181-0.067 0.277-0.062s0.19 0.036 0.27 0.089z"></path>
</symbol>
<symbol id="shape-1" viewBox="0 0 32 32">
<path fill="#ffa3a3" style="fill: var(--color6, #ffa3a3)" d="M10.667 26.667c0-11.782 9.551-21.333 21.333-21.333v21.333h-21.333z"></path>
<path fill="#84c4ff" style="fill: var(--color2, #84c4ff)" d="M0 5.333c11.782 0 21.333 9.551 21.333 21.333h-21.333v-21.333z"></path>
<path fill="#84c4ff" style="fill: var(--color2, #84c4ff)" d="M10.667 26.667h10.667c0-5.41-2.014-10.35-5.333-14.111-3.319 3.761-5.333 8.701-5.333 14.111z"></path>
</symbol>
<symbol id="shape-2" viewBox="0 0 32 32">
<path fill="#ffa3a3" style="fill: var(--color6, #ffa3a3)" d="M2.621 32c0-15.921 12.907-28.828 28.828-28.828v28.828h-28.828z"></path>
<path fill="#84c4ff" style="fill: var(--color2, #84c4ff)" d="M17.103 8.276c0 4.571-3.705 8.276-8.276 8.276s-8.276-3.705-8.276-8.276c0-4.571 3.705-8.276 8.276-8.276s8.276 3.705 8.276 8.276z"></path>
<path fill="#84c4ff" style="fill: var(--color2, #84c4ff)" d="M8.828 16.552c4.571 0 8.276-3.705 8.276-8.276 0-0.419-0.031-0.831-0.091-1.234-3.963 2.297-7.328 5.511-9.805 9.351 0.524 0.104 1.066 0.159 1.621 0.159z"></path>
</symbol>
<symbol id="confetti-1" viewBox="0 0 32 32">
<path fill="#ffa3a3" style="fill: var(--color6, #ffa3a3)" d="M10.496 25.672l-5.603-20.785 21.033 5.537-15.43 15.248z"></path>
<path fill="none" stroke="#222" stroke-width="1.0240" stroke-miterlimit="4" stroke-linecap="butt" stroke-linejoin="miter" style="stroke: var(--color8, #222)" d="M23.293 16.993l-14.166 13.999-5.144-19.083 19.31 5.083z"></path>
</symbol>
<symbol id="confetti-2" viewBox="0 0 32 32">
<path fill="#84c4ff" style="fill: var(--color2, #84c4ff)" d="M6.667 6.816l25.333-0.039-12.7 22.222-12.634-22.184z"></path>
<path fill="none" stroke="#222" stroke-width="1.7778" stroke-miterlimit="4" stroke-linecap="butt" stroke-linejoin="miter" style="stroke: var(--color8, #222)" d="M12.635 23.428l-11.107-19.503 22.272-0.034-11.165 19.537z"></path>
</symbol>
<symbol id="confetti-3" viewBox="0 0 32 32">
<path fill="none" stroke="#fc5252" stroke-width="2.3273" stroke-miterlimit="4" stroke-linecap="butt" stroke-linejoin="miter" style="stroke: var(--color4, #fc5252)" d="M4.367 16.078l23.854-13.724 0.042 27.52-23.896-13.796z"></path>
</symbol>
<symbol id="shape-3" viewBox="0 0 32 32">
<path fill="#84c4ff" style="fill: var(--color2, #84c4ff)" d="M31.862 27.807l-36.19-9.712 3.725-13.903 32.464 23.615z"></path>
</symbol>
<symbol id="confetti-4" viewBox="0 0 32 32">
<path fill="#84c4ff" style="fill: var(--color2, #84c4ff)" d="M27.833 18.167c0 7.64-6.193 13.833-13.833 13.833s-13.833-6.193-13.833-13.833c0-7.64 6.193-13.833 13.833-13.833s13.833 6.193 13.833 13.833z"></path>
<path fill="none" stroke="#222" stroke-width="2.6667" stroke-miterlimit="4" stroke-linecap="butt" stroke-linejoin="miter" style="stroke: var(--color8, #222)" d="M30.5 13.833c0 6.904-5.596 12.5-12.5 12.5s-12.5-5.596-12.5-12.5c0-6.904 5.596-12.5 12.5-12.5s12.5 5.596 12.5 12.5z"></path>
</symbol>
<symbol id="confetti-5" viewBox="0 0 32 32">
<path fill="#381ddb" style="fill: var(--color7, #381ddb)" d="M31.786 16c0 8.509-6.898 15.407-15.407 15.407s-15.407-6.898-15.407-15.407c0-8.509 6.898-15.407 15.407-15.407s15.407 6.898 15.407 15.407z"></path>
</symbol>
<symbol id="confetti-6" viewBox="0 0 32 32">
<path fill="none" stroke="#fc5252" stroke-width="2.3063" stroke-miterlimit="4" stroke-linecap="butt" stroke-linejoin="miter" style="stroke: var(--color4, #fc5252)" d="M29.266 26.162l-6.771 0.553-0.452-6.779-6.771 0.553-0.452-6.779-6.771 0.553-0.452-6.779-6.771 0.553"></path>
</symbol>
<symbol id="confetti-7" viewBox="0 0 32 32">
<path fill="none" stroke="#381ddb" stroke-width="2.3925" stroke-miterlimit="4" stroke-linecap="butt" stroke-linejoin="miter" style="stroke: var(--color7, #381ddb)" d="M4.512 2.859l-0.123 7.047 7.048 0.018-0.123 7.047 7.048 0.018-0.123 7.047 7.048 0.018-0.123 7.047"></path>
</symbol>
<symbol id="confetti-8" viewBox="0 0 32 32">
<path fill="none" stroke="#84c4ff" stroke-width="1.4066" stroke-miterlimit="4" stroke-linecap="butt" stroke-linejoin="miter" style="stroke: var(--color2, #84c4ff)" d="M5.463 1.319l0.399 7.147 7.14-0.505 0.399 7.147 7.14-0.505 0.399 7.147 7.14-0.505 0.399 7.147"></path>
<path fill="none" stroke="#381ddb" stroke-width="1.4066" stroke-miterlimit="4" stroke-linecap="butt" stroke-linejoin="miter" style="stroke: var(--color7, #381ddb)" d="M3.37 3.693l0.399 7.147 7.14-0.505 0.399 7.147 7.14-0.505 0.399 7.147 7.14-0.505 0.399 7.147"></path>
</symbol>
<symbol id="confetti-9" viewBox="0 0 32 32">
<path d="M2.062 19.314l24.664-12.555c1.703-0.867 3.786-0.189 4.652 1.514s0.189 3.786-1.514 4.652l-24.664 12.555c-1.703 0.867-3.786 0.189-4.652-1.514s-0.189-3.786 1.514-4.652z"></path>
</symbol>
<symbol id="confetti-10" viewBox="0 0 32 32">
<path fill="#ffa3a3" style="fill: var(--color6, #ffa3a3)" d="M27.083 1.646l3.104 3.583-26.874 23.281-3.104-3.583 26.874-23.281z"></path>
</symbol>
<symbol id="confetti-11" viewBox="0 0 32 32">
<path fill="#ffa3a3" style="fill: var(--color6, #ffa3a3)" d="M0.028 5.352l3.549-3.549 26.62 26.62-3.549 3.549-26.62-26.62z"></path>
</symbol>
<symbol id="confetti-12" viewBox="0 0 32 32">
<path fill="#84c4ff" style="fill: var(--color2, #84c4ff)" d="M28.682 4.77l2.208 3.824-28.682 16.56-2.208-3.824 28.682-16.56z"></path>
</symbol>
</defs>
</svg>
